G04 #@! TF.GenerationSoftware,KiCad,Pcbnew,(5.1.0)-1*
G04 #@! TF.CreationDate,2020-05-06T13:16:38-02:30*
G04 #@! TF.ProjectId,PCB_Morro_Bay,5043425f-4d6f-4727-926f-5f4261792e6b,A*
G04 #@! TF.SameCoordinates,Original*
G04 #@! TF.FileFunction,Paste,Bot*
G04 #@! TF.FilePolarity,Positive*
%FSLAX46Y46*%
G04 Gerber Fmt 4.6, Leading zero omitted, Abs format (unit mm)*
G04 Created by KiCad (PCBNEW (5.1.0)-1) date 2020-05-06 13:16:38*
%MOMM*%
%LPD*%
G04 APERTURE LIST*
%ADD10C,0.100000*%
%ADD11C,0.950000*%
%ADD12C,1.150000*%
%ADD13C,1.425000*%
G04 APERTURE END LIST*
D10*
G36*
X190185779Y-123776144D02*
G01*
X190208834Y-123779563D01*
X190231443Y-123785227D01*
X190253387Y-123793079D01*
X190274457Y-123803044D01*
X190294448Y-123815026D01*
X190313168Y-123828910D01*
X190330438Y-123844562D01*
X190346090Y-123861832D01*
X190359974Y-123880552D01*
X190371956Y-123900543D01*
X190381921Y-123921613D01*
X190389773Y-123943557D01*
X190395437Y-123966166D01*
X190398856Y-123989221D01*
X190400000Y-124012500D01*
X190400000Y-124487500D01*
X190398856Y-124510779D01*
X190395437Y-124533834D01*
X190389773Y-124556443D01*
X190381921Y-124578387D01*
X190371956Y-124599457D01*
X190359974Y-124619448D01*
X190346090Y-124638168D01*
X190330438Y-124655438D01*
X190313168Y-124671090D01*
X190294448Y-124684974D01*
X190274457Y-124696956D01*
X190253387Y-124706921D01*
X190231443Y-124714773D01*
X190208834Y-124720437D01*
X190185779Y-124723856D01*
X190162500Y-124725000D01*
X189587500Y-124725000D01*
X189564221Y-124723856D01*
X189541166Y-124720437D01*
X189518557Y-124714773D01*
X189496613Y-124706921D01*
X189475543Y-124696956D01*
X189455552Y-124684974D01*
X189436832Y-124671090D01*
X189419562Y-124655438D01*
X189403910Y-124638168D01*
X189390026Y-124619448D01*
X189378044Y-124599457D01*
X189368079Y-124578387D01*
X189360227Y-124556443D01*
X189354563Y-124533834D01*
X189351144Y-124510779D01*
X189350000Y-124487500D01*
X189350000Y-124012500D01*
X189351144Y-123989221D01*
X189354563Y-123966166D01*
X189360227Y-123943557D01*
X189368079Y-123921613D01*
X189378044Y-123900543D01*
X189390026Y-123880552D01*
X189403910Y-123861832D01*
X189419562Y-123844562D01*
X189436832Y-123828910D01*
X189455552Y-123815026D01*
X189475543Y-123803044D01*
X189496613Y-123793079D01*
X189518557Y-123785227D01*
X189541166Y-123779563D01*
X189564221Y-123776144D01*
X189587500Y-123775000D01*
X190162500Y-123775000D01*
X190185779Y-123776144D01*
X190185779Y-123776144D01*
G37*
D11*
X189875000Y-124250000D03*
D10*
G36*
X191935779Y-123776144D02*
G01*
X191958834Y-123779563D01*
X191981443Y-123785227D01*
X192003387Y-123793079D01*
X192024457Y-123803044D01*
X192044448Y-123815026D01*
X192063168Y-123828910D01*
X192080438Y-123844562D01*
X192096090Y-123861832D01*
X192109974Y-123880552D01*
X192121956Y-123900543D01*
X192131921Y-123921613D01*
X192139773Y-123943557D01*
X192145437Y-123966166D01*
X192148856Y-123989221D01*
X192150000Y-124012500D01*
X192150000Y-124487500D01*
X192148856Y-124510779D01*
X192145437Y-124533834D01*
X192139773Y-124556443D01*
X192131921Y-124578387D01*
X192121956Y-124599457D01*
X192109974Y-124619448D01*
X192096090Y-124638168D01*
X192080438Y-124655438D01*
X192063168Y-124671090D01*
X192044448Y-124684974D01*
X192024457Y-124696956D01*
X192003387Y-124706921D01*
X191981443Y-124714773D01*
X191958834Y-124720437D01*
X191935779Y-124723856D01*
X191912500Y-124725000D01*
X191337500Y-124725000D01*
X191314221Y-124723856D01*
X191291166Y-124720437D01*
X191268557Y-124714773D01*
X191246613Y-124706921D01*
X191225543Y-124696956D01*
X191205552Y-124684974D01*
X191186832Y-124671090D01*
X191169562Y-124655438D01*
X191153910Y-124638168D01*
X191140026Y-124619448D01*
X191128044Y-124599457D01*
X191118079Y-124578387D01*
X191110227Y-124556443D01*
X191104563Y-124533834D01*
X191101144Y-124510779D01*
X191100000Y-124487500D01*
X191100000Y-124012500D01*
X191101144Y-123989221D01*
X191104563Y-123966166D01*
X191110227Y-123943557D01*
X191118079Y-123921613D01*
X191128044Y-123900543D01*
X191140026Y-123880552D01*
X191153910Y-123861832D01*
X191169562Y-123844562D01*
X191186832Y-123828910D01*
X191205552Y-123815026D01*
X191225543Y-123803044D01*
X191246613Y-123793079D01*
X191268557Y-123785227D01*
X191291166Y-123779563D01*
X191314221Y-123776144D01*
X191337500Y-123775000D01*
X191912500Y-123775000D01*
X191935779Y-123776144D01*
X191935779Y-123776144D01*
G37*
D11*
X191625000Y-124250000D03*
D10*
G36*
X185260779Y-124601144D02*
G01*
X185283834Y-124604563D01*
X185306443Y-124610227D01*
X185328387Y-124618079D01*
X185349457Y-124628044D01*
X185369448Y-124640026D01*
X185388168Y-124653910D01*
X185405438Y-124669562D01*
X185421090Y-124686832D01*
X185434974Y-124705552D01*
X185446956Y-124725543D01*
X185456921Y-124746613D01*
X185464773Y-124768557D01*
X185470437Y-124791166D01*
X185473856Y-124814221D01*
X185475000Y-124837500D01*
X185475000Y-125412500D01*
X185473856Y-125435779D01*
X185470437Y-125458834D01*
X185464773Y-125481443D01*
X185456921Y-125503387D01*
X185446956Y-125524457D01*
X185434974Y-125544448D01*
X185421090Y-125563168D01*
X185405438Y-125580438D01*
X185388168Y-125596090D01*
X185369448Y-125609974D01*
X185349457Y-125621956D01*
X185328387Y-125631921D01*
X185306443Y-125639773D01*
X185283834Y-125645437D01*
X185260779Y-125648856D01*
X185237500Y-125650000D01*
X184762500Y-125650000D01*
X184739221Y-125648856D01*
X184716166Y-125645437D01*
X184693557Y-125639773D01*
X184671613Y-125631921D01*
X184650543Y-125621956D01*
X184630552Y-125609974D01*
X184611832Y-125596090D01*
X184594562Y-125580438D01*
X184578910Y-125563168D01*
X184565026Y-125544448D01*
X184553044Y-125524457D01*
X184543079Y-125503387D01*
X184535227Y-125481443D01*
X184529563Y-125458834D01*
X184526144Y-125435779D01*
X184525000Y-125412500D01*
X184525000Y-124837500D01*
X184526144Y-124814221D01*
X184529563Y-124791166D01*
X184535227Y-124768557D01*
X184543079Y-124746613D01*
X184553044Y-124725543D01*
X184565026Y-124705552D01*
X184578910Y-124686832D01*
X184594562Y-124669562D01*
X184611832Y-124653910D01*
X184630552Y-124640026D01*
X184650543Y-124628044D01*
X184671613Y-124618079D01*
X184693557Y-124610227D01*
X184716166Y-124604563D01*
X184739221Y-124601144D01*
X184762500Y-124600000D01*
X185237500Y-124600000D01*
X185260779Y-124601144D01*
X185260779Y-124601144D01*
G37*
D11*
X185000000Y-125125000D03*
D10*
G36*
X185260779Y-126351144D02*
G01*
X185283834Y-126354563D01*
X185306443Y-126360227D01*
X185328387Y-126368079D01*
X185349457Y-126378044D01*
X185369448Y-126390026D01*
X185388168Y-126403910D01*
X185405438Y-126419562D01*
X185421090Y-126436832D01*
X185434974Y-126455552D01*
X185446956Y-126475543D01*
X185456921Y-126496613D01*
X185464773Y-126518557D01*
X185470437Y-126541166D01*
X185473856Y-126564221D01*
X185475000Y-126587500D01*
X185475000Y-127162500D01*
X185473856Y-127185779D01*
X185470437Y-127208834D01*
X185464773Y-127231443D01*
X185456921Y-127253387D01*
X185446956Y-127274457D01*
X185434974Y-127294448D01*
X185421090Y-127313168D01*
X185405438Y-127330438D01*
X185388168Y-127346090D01*
X185369448Y-127359974D01*
X185349457Y-127371956D01*
X185328387Y-127381921D01*
X185306443Y-127389773D01*
X185283834Y-127395437D01*
X185260779Y-127398856D01*
X185237500Y-127400000D01*
X184762500Y-127400000D01*
X184739221Y-127398856D01*
X184716166Y-127395437D01*
X184693557Y-127389773D01*
X184671613Y-127381921D01*
X184650543Y-127371956D01*
X184630552Y-127359974D01*
X184611832Y-127346090D01*
X184594562Y-127330438D01*
X184578910Y-127313168D01*
X184565026Y-127294448D01*
X184553044Y-127274457D01*
X184543079Y-127253387D01*
X184535227Y-127231443D01*
X184529563Y-127208834D01*
X184526144Y-127185779D01*
X184525000Y-127162500D01*
X184525000Y-126587500D01*
X184526144Y-126564221D01*
X184529563Y-126541166D01*
X184535227Y-126518557D01*
X184543079Y-126496613D01*
X184553044Y-126475543D01*
X184565026Y-126455552D01*
X184578910Y-126436832D01*
X184594562Y-126419562D01*
X184611832Y-126403910D01*
X184630552Y-126390026D01*
X184650543Y-126378044D01*
X184671613Y-126368079D01*
X184693557Y-126360227D01*
X184716166Y-126354563D01*
X184739221Y-126351144D01*
X184762500Y-126350000D01*
X185237500Y-126350000D01*
X185260779Y-126351144D01*
X185260779Y-126351144D01*
G37*
D11*
X185000000Y-126875000D03*
D10*
G36*
X187260779Y-126351144D02*
G01*
X187283834Y-126354563D01*
X187306443Y-126360227D01*
X187328387Y-126368079D01*
X187349457Y-126378044D01*
X187369448Y-126390026D01*
X187388168Y-126403910D01*
X187405438Y-126419562D01*
X187421090Y-126436832D01*
X187434974Y-126455552D01*
X187446956Y-126475543D01*
X187456921Y-126496613D01*
X187464773Y-126518557D01*
X187470437Y-126541166D01*
X187473856Y-126564221D01*
X187475000Y-126587500D01*
X187475000Y-127162500D01*
X187473856Y-127185779D01*
X187470437Y-127208834D01*
X187464773Y-127231443D01*
X187456921Y-127253387D01*
X187446956Y-127274457D01*
X187434974Y-127294448D01*
X187421090Y-127313168D01*
X187405438Y-127330438D01*
X187388168Y-127346090D01*
X187369448Y-127359974D01*
X187349457Y-127371956D01*
X187328387Y-127381921D01*
X187306443Y-127389773D01*
X187283834Y-127395437D01*
X187260779Y-127398856D01*
X187237500Y-127400000D01*
X186762500Y-127400000D01*
X186739221Y-127398856D01*
X186716166Y-127395437D01*
X186693557Y-127389773D01*
X186671613Y-127381921D01*
X186650543Y-127371956D01*
X186630552Y-127359974D01*
X186611832Y-127346090D01*
X186594562Y-127330438D01*
X186578910Y-127313168D01*
X186565026Y-127294448D01*
X186553044Y-127274457D01*
X186543079Y-127253387D01*
X186535227Y-127231443D01*
X186529563Y-127208834D01*
X186526144Y-127185779D01*
X186525000Y-127162500D01*
X186525000Y-126587500D01*
X186526144Y-126564221D01*
X186529563Y-126541166D01*
X186535227Y-126518557D01*
X186543079Y-126496613D01*
X186553044Y-126475543D01*
X186565026Y-126455552D01*
X186578910Y-126436832D01*
X186594562Y-126419562D01*
X186611832Y-126403910D01*
X186630552Y-126390026D01*
X186650543Y-126378044D01*
X186671613Y-126368079D01*
X186693557Y-126360227D01*
X186716166Y-126354563D01*
X186739221Y-126351144D01*
X186762500Y-126350000D01*
X187237500Y-126350000D01*
X187260779Y-126351144D01*
X187260779Y-126351144D01*
G37*
D11*
X187000000Y-126875000D03*
D10*
G36*
X187260779Y-124601144D02*
G01*
X187283834Y-124604563D01*
X187306443Y-124610227D01*
X187328387Y-124618079D01*
X187349457Y-124628044D01*
X187369448Y-124640026D01*
X187388168Y-124653910D01*
X187405438Y-124669562D01*
X187421090Y-124686832D01*
X187434974Y-124705552D01*
X187446956Y-124725543D01*
X187456921Y-124746613D01*
X187464773Y-124768557D01*
X187470437Y-124791166D01*
X187473856Y-124814221D01*
X187475000Y-124837500D01*
X187475000Y-125412500D01*
X187473856Y-125435779D01*
X187470437Y-125458834D01*
X187464773Y-125481443D01*
X187456921Y-125503387D01*
X187446956Y-125524457D01*
X187434974Y-125544448D01*
X187421090Y-125563168D01*
X187405438Y-125580438D01*
X187388168Y-125596090D01*
X187369448Y-125609974D01*
X187349457Y-125621956D01*
X187328387Y-125631921D01*
X187306443Y-125639773D01*
X187283834Y-125645437D01*
X187260779Y-125648856D01*
X187237500Y-125650000D01*
X186762500Y-125650000D01*
X186739221Y-125648856D01*
X186716166Y-125645437D01*
X186693557Y-125639773D01*
X186671613Y-125631921D01*
X186650543Y-125621956D01*
X186630552Y-125609974D01*
X186611832Y-125596090D01*
X186594562Y-125580438D01*
X186578910Y-125563168D01*
X186565026Y-125544448D01*
X186553044Y-125524457D01*
X186543079Y-125503387D01*
X186535227Y-125481443D01*
X186529563Y-125458834D01*
X186526144Y-125435779D01*
X186525000Y-125412500D01*
X186525000Y-124837500D01*
X186526144Y-124814221D01*
X186529563Y-124791166D01*
X186535227Y-124768557D01*
X186543079Y-124746613D01*
X186553044Y-124725543D01*
X186565026Y-124705552D01*
X186578910Y-124686832D01*
X186594562Y-124669562D01*
X186611832Y-124653910D01*
X186630552Y-124640026D01*
X186650543Y-124628044D01*
X186671613Y-124618079D01*
X186693557Y-124610227D01*
X186716166Y-124604563D01*
X186739221Y-124601144D01*
X186762500Y-124600000D01*
X187237500Y-124600000D01*
X187260779Y-124601144D01*
X187260779Y-124601144D01*
G37*
D11*
X187000000Y-125125000D03*
D10*
G36*
X173185779Y-102276144D02*
G01*
X173208834Y-102279563D01*
X173231443Y-102285227D01*
X173253387Y-102293079D01*
X173274457Y-102303044D01*
X173294448Y-102315026D01*
X173313168Y-102328910D01*
X173330438Y-102344562D01*
X173346090Y-102361832D01*
X173359974Y-102380552D01*
X173371956Y-102400543D01*
X173381921Y-102421613D01*
X173389773Y-102443557D01*
X173395437Y-102466166D01*
X173398856Y-102489221D01*
X173400000Y-102512500D01*
X173400000Y-102987500D01*
X173398856Y-103010779D01*
X173395437Y-103033834D01*
X173389773Y-103056443D01*
X173381921Y-103078387D01*
X173371956Y-103099457D01*
X173359974Y-103119448D01*
X173346090Y-103138168D01*
X173330438Y-103155438D01*
X173313168Y-103171090D01*
X173294448Y-103184974D01*
X173274457Y-103196956D01*
X173253387Y-103206921D01*
X173231443Y-103214773D01*
X173208834Y-103220437D01*
X173185779Y-103223856D01*
X173162500Y-103225000D01*
X172587500Y-103225000D01*
X172564221Y-103223856D01*
X172541166Y-103220437D01*
X172518557Y-103214773D01*
X172496613Y-103206921D01*
X172475543Y-103196956D01*
X172455552Y-103184974D01*
X172436832Y-103171090D01*
X172419562Y-103155438D01*
X172403910Y-103138168D01*
X172390026Y-103119448D01*
X172378044Y-103099457D01*
X172368079Y-103078387D01*
X172360227Y-103056443D01*
X172354563Y-103033834D01*
X172351144Y-103010779D01*
X172350000Y-102987500D01*
X172350000Y-102512500D01*
X172351144Y-102489221D01*
X172354563Y-102466166D01*
X172360227Y-102443557D01*
X172368079Y-102421613D01*
X172378044Y-102400543D01*
X172390026Y-102380552D01*
X172403910Y-102361832D01*
X172419562Y-102344562D01*
X172436832Y-102328910D01*
X172455552Y-102315026D01*
X172475543Y-102303044D01*
X172496613Y-102293079D01*
X172518557Y-102285227D01*
X172541166Y-102279563D01*
X172564221Y-102276144D01*
X172587500Y-102275000D01*
X173162500Y-102275000D01*
X173185779Y-102276144D01*
X173185779Y-102276144D01*
G37*
D11*
X172875000Y-102750000D03*
D10*
G36*
X174935779Y-102276144D02*
G01*
X174958834Y-102279563D01*
X174981443Y-102285227D01*
X175003387Y-102293079D01*
X175024457Y-102303044D01*
X175044448Y-102315026D01*
X175063168Y-102328910D01*
X175080438Y-102344562D01*
X175096090Y-102361832D01*
X175109974Y-102380552D01*
X175121956Y-102400543D01*
X175131921Y-102421613D01*
X175139773Y-102443557D01*
X175145437Y-102466166D01*
X175148856Y-102489221D01*
X175150000Y-102512500D01*
X175150000Y-102987500D01*
X175148856Y-103010779D01*
X175145437Y-103033834D01*
X175139773Y-103056443D01*
X175131921Y-103078387D01*
X175121956Y-103099457D01*
X175109974Y-103119448D01*
X175096090Y-103138168D01*
X175080438Y-103155438D01*
X175063168Y-103171090D01*
X175044448Y-103184974D01*
X175024457Y-103196956D01*
X175003387Y-103206921D01*
X174981443Y-103214773D01*
X174958834Y-103220437D01*
X174935779Y-103223856D01*
X174912500Y-103225000D01*
X174337500Y-103225000D01*
X174314221Y-103223856D01*
X174291166Y-103220437D01*
X174268557Y-103214773D01*
X174246613Y-103206921D01*
X174225543Y-103196956D01*
X174205552Y-103184974D01*
X174186832Y-103171090D01*
X174169562Y-103155438D01*
X174153910Y-103138168D01*
X174140026Y-103119448D01*
X174128044Y-103099457D01*
X174118079Y-103078387D01*
X174110227Y-103056443D01*
X174104563Y-103033834D01*
X174101144Y-103010779D01*
X174100000Y-102987500D01*
X174100000Y-102512500D01*
X174101144Y-102489221D01*
X174104563Y-102466166D01*
X174110227Y-102443557D01*
X174118079Y-102421613D01*
X174128044Y-102400543D01*
X174140026Y-102380552D01*
X174153910Y-102361832D01*
X174169562Y-102344562D01*
X174186832Y-102328910D01*
X174205552Y-102315026D01*
X174225543Y-102303044D01*
X174246613Y-102293079D01*
X174268557Y-102285227D01*
X174291166Y-102279563D01*
X174314221Y-102276144D01*
X174337500Y-102275000D01*
X174912500Y-102275000D01*
X174935779Y-102276144D01*
X174935779Y-102276144D01*
G37*
D11*
X174625000Y-102750000D03*
D10*
G36*
X204685779Y-102276144D02*
G01*
X204708834Y-102279563D01*
X204731443Y-102285227D01*
X204753387Y-102293079D01*
X204774457Y-102303044D01*
X204794448Y-102315026D01*
X204813168Y-102328910D01*
X204830438Y-102344562D01*
X204846090Y-102361832D01*
X204859974Y-102380552D01*
X204871956Y-102400543D01*
X204881921Y-102421613D01*
X204889773Y-102443557D01*
X204895437Y-102466166D01*
X204898856Y-102489221D01*
X204900000Y-102512500D01*
X204900000Y-102987500D01*
X204898856Y-103010779D01*
X204895437Y-103033834D01*
X204889773Y-103056443D01*
X204881921Y-103078387D01*
X204871956Y-103099457D01*
X204859974Y-103119448D01*
X204846090Y-103138168D01*
X204830438Y-103155438D01*
X204813168Y-103171090D01*
X204794448Y-103184974D01*
X204774457Y-103196956D01*
X204753387Y-103206921D01*
X204731443Y-103214773D01*
X204708834Y-103220437D01*
X204685779Y-103223856D01*
X204662500Y-103225000D01*
X204087500Y-103225000D01*
X204064221Y-103223856D01*
X204041166Y-103220437D01*
X204018557Y-103214773D01*
X203996613Y-103206921D01*
X203975543Y-103196956D01*
X203955552Y-103184974D01*
X203936832Y-103171090D01*
X203919562Y-103155438D01*
X203903910Y-103138168D01*
X203890026Y-103119448D01*
X203878044Y-103099457D01*
X203868079Y-103078387D01*
X203860227Y-103056443D01*
X203854563Y-103033834D01*
X203851144Y-103010779D01*
X203850000Y-102987500D01*
X203850000Y-102512500D01*
X203851144Y-102489221D01*
X203854563Y-102466166D01*
X203860227Y-102443557D01*
X203868079Y-102421613D01*
X203878044Y-102400543D01*
X203890026Y-102380552D01*
X203903910Y-102361832D01*
X203919562Y-102344562D01*
X203936832Y-102328910D01*
X203955552Y-102315026D01*
X203975543Y-102303044D01*
X203996613Y-102293079D01*
X204018557Y-102285227D01*
X204041166Y-102279563D01*
X204064221Y-102276144D01*
X204087500Y-102275000D01*
X204662500Y-102275000D01*
X204685779Y-102276144D01*
X204685779Y-102276144D01*
G37*
D11*
X204375000Y-102750000D03*
D10*
G36*
X206435779Y-102276144D02*
G01*
X206458834Y-102279563D01*
X206481443Y-102285227D01*
X206503387Y-102293079D01*
X206524457Y-102303044D01*
X206544448Y-102315026D01*
X206563168Y-102328910D01*
X206580438Y-102344562D01*
X206596090Y-102361832D01*
X206609974Y-102380552D01*
X206621956Y-102400543D01*
X206631921Y-102421613D01*
X206639773Y-102443557D01*
X206645437Y-102466166D01*
X206648856Y-102489221D01*
X206650000Y-102512500D01*
X206650000Y-102987500D01*
X206648856Y-103010779D01*
X206645437Y-103033834D01*
X206639773Y-103056443D01*
X206631921Y-103078387D01*
X206621956Y-103099457D01*
X206609974Y-103119448D01*
X206596090Y-103138168D01*
X206580438Y-103155438D01*
X206563168Y-103171090D01*
X206544448Y-103184974D01*
X206524457Y-103196956D01*
X206503387Y-103206921D01*
X206481443Y-103214773D01*
X206458834Y-103220437D01*
X206435779Y-103223856D01*
X206412500Y-103225000D01*
X205837500Y-103225000D01*
X205814221Y-103223856D01*
X205791166Y-103220437D01*
X205768557Y-103214773D01*
X205746613Y-103206921D01*
X205725543Y-103196956D01*
X205705552Y-103184974D01*
X205686832Y-103171090D01*
X205669562Y-103155438D01*
X205653910Y-103138168D01*
X205640026Y-103119448D01*
X205628044Y-103099457D01*
X205618079Y-103078387D01*
X205610227Y-103056443D01*
X205604563Y-103033834D01*
X205601144Y-103010779D01*
X205600000Y-102987500D01*
X205600000Y-102512500D01*
X205601144Y-102489221D01*
X205604563Y-102466166D01*
X205610227Y-102443557D01*
X205618079Y-102421613D01*
X205628044Y-102400543D01*
X205640026Y-102380552D01*
X205653910Y-102361832D01*
X205669562Y-102344562D01*
X205686832Y-102328910D01*
X205705552Y-102315026D01*
X205725543Y-102303044D01*
X205746613Y-102293079D01*
X205768557Y-102285227D01*
X205791166Y-102279563D01*
X205814221Y-102276144D01*
X205837500Y-102275000D01*
X206412500Y-102275000D01*
X206435779Y-102276144D01*
X206435779Y-102276144D01*
G37*
D11*
X206125000Y-102750000D03*
D10*
G36*
X247435779Y-102276144D02*
G01*
X247458834Y-102279563D01*
X247481443Y-102285227D01*
X247503387Y-102293079D01*
X247524457Y-102303044D01*
X247544448Y-102315026D01*
X247563168Y-102328910D01*
X247580438Y-102344562D01*
X247596090Y-102361832D01*
X247609974Y-102380552D01*
X247621956Y-102400543D01*
X247631921Y-102421613D01*
X247639773Y-102443557D01*
X247645437Y-102466166D01*
X247648856Y-102489221D01*
X247650000Y-102512500D01*
X247650000Y-102987500D01*
X247648856Y-103010779D01*
X247645437Y-103033834D01*
X247639773Y-103056443D01*
X247631921Y-103078387D01*
X247621956Y-103099457D01*
X247609974Y-103119448D01*
X247596090Y-103138168D01*
X247580438Y-103155438D01*
X247563168Y-103171090D01*
X247544448Y-103184974D01*
X247524457Y-103196956D01*
X247503387Y-103206921D01*
X247481443Y-103214773D01*
X247458834Y-103220437D01*
X247435779Y-103223856D01*
X247412500Y-103225000D01*
X246837500Y-103225000D01*
X246814221Y-103223856D01*
X246791166Y-103220437D01*
X246768557Y-103214773D01*
X246746613Y-103206921D01*
X246725543Y-103196956D01*
X246705552Y-103184974D01*
X246686832Y-103171090D01*
X246669562Y-103155438D01*
X246653910Y-103138168D01*
X246640026Y-103119448D01*
X246628044Y-103099457D01*
X246618079Y-103078387D01*
X246610227Y-103056443D01*
X246604563Y-103033834D01*
X246601144Y-103010779D01*
X246600000Y-102987500D01*
X246600000Y-102512500D01*
X246601144Y-102489221D01*
X246604563Y-102466166D01*
X246610227Y-102443557D01*
X246618079Y-102421613D01*
X246628044Y-102400543D01*
X246640026Y-102380552D01*
X246653910Y-102361832D01*
X246669562Y-102344562D01*
X246686832Y-102328910D01*
X246705552Y-102315026D01*
X246725543Y-102303044D01*
X246746613Y-102293079D01*
X246768557Y-102285227D01*
X246791166Y-102279563D01*
X246814221Y-102276144D01*
X246837500Y-102275000D01*
X247412500Y-102275000D01*
X247435779Y-102276144D01*
X247435779Y-102276144D01*
G37*
D11*
X247125000Y-102750000D03*
D10*
G36*
X245685779Y-102276144D02*
G01*
X245708834Y-102279563D01*
X245731443Y-102285227D01*
X245753387Y-102293079D01*
X245774457Y-102303044D01*
X245794448Y-102315026D01*
X245813168Y-102328910D01*
X245830438Y-102344562D01*
X245846090Y-102361832D01*
X245859974Y-102380552D01*
X245871956Y-102400543D01*
X245881921Y-102421613D01*
X245889773Y-102443557D01*
X245895437Y-102466166D01*
X245898856Y-102489221D01*
X245900000Y-102512500D01*
X245900000Y-102987500D01*
X245898856Y-103010779D01*
X245895437Y-103033834D01*
X245889773Y-103056443D01*
X245881921Y-103078387D01*
X245871956Y-103099457D01*
X245859974Y-103119448D01*
X245846090Y-103138168D01*
X245830438Y-103155438D01*
X245813168Y-103171090D01*
X245794448Y-103184974D01*
X245774457Y-103196956D01*
X245753387Y-103206921D01*
X245731443Y-103214773D01*
X245708834Y-103220437D01*
X245685779Y-103223856D01*
X245662500Y-103225000D01*
X245087500Y-103225000D01*
X245064221Y-103223856D01*
X245041166Y-103220437D01*
X245018557Y-103214773D01*
X244996613Y-103206921D01*
X244975543Y-103196956D01*
X244955552Y-103184974D01*
X244936832Y-103171090D01*
X244919562Y-103155438D01*
X244903910Y-103138168D01*
X244890026Y-103119448D01*
X244878044Y-103099457D01*
X244868079Y-103078387D01*
X244860227Y-103056443D01*
X244854563Y-103033834D01*
X244851144Y-103010779D01*
X244850000Y-102987500D01*
X244850000Y-102512500D01*
X244851144Y-102489221D01*
X244854563Y-102466166D01*
X244860227Y-102443557D01*
X244868079Y-102421613D01*
X244878044Y-102400543D01*
X244890026Y-102380552D01*
X244903910Y-102361832D01*
X244919562Y-102344562D01*
X244936832Y-102328910D01*
X244955552Y-102315026D01*
X244975543Y-102303044D01*
X244996613Y-102293079D01*
X245018557Y-102285227D01*
X245041166Y-102279563D01*
X245064221Y-102276144D01*
X245087500Y-102275000D01*
X245662500Y-102275000D01*
X245685779Y-102276144D01*
X245685779Y-102276144D01*
G37*
D11*
X245375000Y-102750000D03*
D10*
G36*
X277760779Y-121601144D02*
G01*
X277783834Y-121604563D01*
X277806443Y-121610227D01*
X277828387Y-121618079D01*
X277849457Y-121628044D01*
X277869448Y-121640026D01*
X277888168Y-121653910D01*
X277905438Y-121669562D01*
X277921090Y-121686832D01*
X277934974Y-121705552D01*
X277946956Y-121725543D01*
X277956921Y-121746613D01*
X277964773Y-121768557D01*
X277970437Y-121791166D01*
X277973856Y-121814221D01*
X277975000Y-121837500D01*
X277975000Y-122412500D01*
X277973856Y-122435779D01*
X277970437Y-122458834D01*
X277964773Y-122481443D01*
X277956921Y-122503387D01*
X277946956Y-122524457D01*
X277934974Y-122544448D01*
X277921090Y-122563168D01*
X277905438Y-122580438D01*
X277888168Y-122596090D01*
X277869448Y-122609974D01*
X277849457Y-122621956D01*
X277828387Y-122631921D01*
X277806443Y-122639773D01*
X277783834Y-122645437D01*
X277760779Y-122648856D01*
X277737500Y-122650000D01*
X277262500Y-122650000D01*
X277239221Y-122648856D01*
X277216166Y-122645437D01*
X277193557Y-122639773D01*
X277171613Y-122631921D01*
X277150543Y-122621956D01*
X277130552Y-122609974D01*
X277111832Y-122596090D01*
X277094562Y-122580438D01*
X277078910Y-122563168D01*
X277065026Y-122544448D01*
X277053044Y-122524457D01*
X277043079Y-122503387D01*
X277035227Y-122481443D01*
X277029563Y-122458834D01*
X277026144Y-122435779D01*
X277025000Y-122412500D01*
X277025000Y-121837500D01*
X277026144Y-121814221D01*
X277029563Y-121791166D01*
X277035227Y-121768557D01*
X277043079Y-121746613D01*
X277053044Y-121725543D01*
X277065026Y-121705552D01*
X277078910Y-121686832D01*
X277094562Y-121669562D01*
X277111832Y-121653910D01*
X277130552Y-121640026D01*
X277150543Y-121628044D01*
X277171613Y-121618079D01*
X277193557Y-121610227D01*
X277216166Y-121604563D01*
X277239221Y-121601144D01*
X277262500Y-121600000D01*
X277737500Y-121600000D01*
X277760779Y-121601144D01*
X277760779Y-121601144D01*
G37*
D11*
X277500000Y-122125000D03*
D10*
G36*
X277760779Y-119851144D02*
G01*
X277783834Y-119854563D01*
X277806443Y-119860227D01*
X277828387Y-119868079D01*
X277849457Y-119878044D01*
X277869448Y-119890026D01*
X277888168Y-119903910D01*
X277905438Y-119919562D01*
X277921090Y-119936832D01*
X277934974Y-119955552D01*
X277946956Y-119975543D01*
X277956921Y-119996613D01*
X277964773Y-120018557D01*
X277970437Y-120041166D01*
X277973856Y-120064221D01*
X277975000Y-120087500D01*
X277975000Y-120662500D01*
X277973856Y-120685779D01*
X277970437Y-120708834D01*
X277964773Y-120731443D01*
X277956921Y-120753387D01*
X277946956Y-120774457D01*
X277934974Y-120794448D01*
X277921090Y-120813168D01*
X277905438Y-120830438D01*
X277888168Y-120846090D01*
X277869448Y-120859974D01*
X277849457Y-120871956D01*
X277828387Y-120881921D01*
X277806443Y-120889773D01*
X277783834Y-120895437D01*
X277760779Y-120898856D01*
X277737500Y-120900000D01*
X277262500Y-120900000D01*
X277239221Y-120898856D01*
X277216166Y-120895437D01*
X277193557Y-120889773D01*
X277171613Y-120881921D01*
X277150543Y-120871956D01*
X277130552Y-120859974D01*
X277111832Y-120846090D01*
X277094562Y-120830438D01*
X277078910Y-120813168D01*
X277065026Y-120794448D01*
X277053044Y-120774457D01*
X277043079Y-120753387D01*
X277035227Y-120731443D01*
X277029563Y-120708834D01*
X277026144Y-120685779D01*
X277025000Y-120662500D01*
X277025000Y-120087500D01*
X277026144Y-120064221D01*
X277029563Y-120041166D01*
X277035227Y-120018557D01*
X277043079Y-119996613D01*
X277053044Y-119975543D01*
X277065026Y-119955552D01*
X277078910Y-119936832D01*
X277094562Y-119919562D01*
X277111832Y-119903910D01*
X277130552Y-119890026D01*
X277150543Y-119878044D01*
X277171613Y-119868079D01*
X277193557Y-119860227D01*
X277216166Y-119854563D01*
X277239221Y-119851144D01*
X277262500Y-119850000D01*
X277737500Y-119850000D01*
X277760779Y-119851144D01*
X277760779Y-119851144D01*
G37*
D11*
X277500000Y-120375000D03*
D10*
G36*
X277760779Y-149851144D02*
G01*
X277783834Y-149854563D01*
X277806443Y-149860227D01*
X277828387Y-149868079D01*
X277849457Y-149878044D01*
X277869448Y-149890026D01*
X277888168Y-149903910D01*
X277905438Y-149919562D01*
X277921090Y-149936832D01*
X277934974Y-149955552D01*
X277946956Y-149975543D01*
X277956921Y-149996613D01*
X277964773Y-150018557D01*
X277970437Y-150041166D01*
X277973856Y-150064221D01*
X277975000Y-150087500D01*
X277975000Y-150662500D01*
X277973856Y-150685779D01*
X277970437Y-150708834D01*
X277964773Y-150731443D01*
X277956921Y-150753387D01*
X277946956Y-150774457D01*
X277934974Y-150794448D01*
X277921090Y-150813168D01*
X277905438Y-150830438D01*
X277888168Y-150846090D01*
X277869448Y-150859974D01*
X277849457Y-150871956D01*
X277828387Y-150881921D01*
X277806443Y-150889773D01*
X277783834Y-150895437D01*
X277760779Y-150898856D01*
X277737500Y-150900000D01*
X277262500Y-150900000D01*
X277239221Y-150898856D01*
X277216166Y-150895437D01*
X277193557Y-150889773D01*
X277171613Y-150881921D01*
X277150543Y-150871956D01*
X277130552Y-150859974D01*
X277111832Y-150846090D01*
X277094562Y-150830438D01*
X277078910Y-150813168D01*
X277065026Y-150794448D01*
X277053044Y-150774457D01*
X277043079Y-150753387D01*
X277035227Y-150731443D01*
X277029563Y-150708834D01*
X277026144Y-150685779D01*
X277025000Y-150662500D01*
X277025000Y-150087500D01*
X277026144Y-150064221D01*
X277029563Y-150041166D01*
X277035227Y-150018557D01*
X277043079Y-149996613D01*
X277053044Y-149975543D01*
X277065026Y-149955552D01*
X277078910Y-149936832D01*
X277094562Y-149919562D01*
X277111832Y-149903910D01*
X277130552Y-149890026D01*
X277150543Y-149878044D01*
X277171613Y-149868079D01*
X277193557Y-149860227D01*
X277216166Y-149854563D01*
X277239221Y-149851144D01*
X277262500Y-149850000D01*
X277737500Y-149850000D01*
X277760779Y-149851144D01*
X277760779Y-149851144D01*
G37*
D11*
X277500000Y-150375000D03*
D10*
G36*
X277760779Y-151601144D02*
G01*
X277783834Y-151604563D01*
X277806443Y-151610227D01*
X277828387Y-151618079D01*
X277849457Y-151628044D01*
X277869448Y-151640026D01*
X277888168Y-151653910D01*
X277905438Y-151669562D01*
X277921090Y-151686832D01*
X277934974Y-151705552D01*
X277946956Y-151725543D01*
X277956921Y-151746613D01*
X277964773Y-151768557D01*
X277970437Y-151791166D01*
X277973856Y-151814221D01*
X277975000Y-151837500D01*
X277975000Y-152412500D01*
X277973856Y-152435779D01*
X277970437Y-152458834D01*
X277964773Y-152481443D01*
X277956921Y-152503387D01*
X277946956Y-152524457D01*
X277934974Y-152544448D01*
X277921090Y-152563168D01*
X277905438Y-152580438D01*
X277888168Y-152596090D01*
X277869448Y-152609974D01*
X277849457Y-152621956D01*
X277828387Y-152631921D01*
X277806443Y-152639773D01*
X277783834Y-152645437D01*
X277760779Y-152648856D01*
X277737500Y-152650000D01*
X277262500Y-152650000D01*
X277239221Y-152648856D01*
X277216166Y-152645437D01*
X277193557Y-152639773D01*
X277171613Y-152631921D01*
X277150543Y-152621956D01*
X277130552Y-152609974D01*
X277111832Y-152596090D01*
X277094562Y-152580438D01*
X277078910Y-152563168D01*
X277065026Y-152544448D01*
X277053044Y-152524457D01*
X277043079Y-152503387D01*
X277035227Y-152481443D01*
X277029563Y-152458834D01*
X277026144Y-152435779D01*
X277025000Y-152412500D01*
X277025000Y-151837500D01*
X277026144Y-151814221D01*
X277029563Y-151791166D01*
X277035227Y-151768557D01*
X277043079Y-151746613D01*
X277053044Y-151725543D01*
X277065026Y-151705552D01*
X277078910Y-151686832D01*
X277094562Y-151669562D01*
X277111832Y-151653910D01*
X277130552Y-151640026D01*
X277150543Y-151628044D01*
X277171613Y-151618079D01*
X277193557Y-151610227D01*
X277216166Y-151604563D01*
X277239221Y-151601144D01*
X277262500Y-151600000D01*
X277737500Y-151600000D01*
X277760779Y-151601144D01*
X277760779Y-151601144D01*
G37*
D11*
X277500000Y-152125000D03*
D10*
G36*
X241935779Y-157776144D02*
G01*
X241958834Y-157779563D01*
X241981443Y-157785227D01*
X242003387Y-157793079D01*
X242024457Y-157803044D01*
X242044448Y-157815026D01*
X242063168Y-157828910D01*
X242080438Y-157844562D01*
X242096090Y-157861832D01*
X242109974Y-157880552D01*
X242121956Y-157900543D01*
X242131921Y-157921613D01*
X242139773Y-157943557D01*
X242145437Y-157966166D01*
X242148856Y-157989221D01*
X242150000Y-158012500D01*
X242150000Y-158487500D01*
X242148856Y-158510779D01*
X242145437Y-158533834D01*
X242139773Y-158556443D01*
X242131921Y-158578387D01*
X242121956Y-158599457D01*
X242109974Y-158619448D01*
X242096090Y-158638168D01*
X242080438Y-158655438D01*
X242063168Y-158671090D01*
X242044448Y-158684974D01*
X242024457Y-158696956D01*
X242003387Y-158706921D01*
X241981443Y-158714773D01*
X241958834Y-158720437D01*
X241935779Y-158723856D01*
X241912500Y-158725000D01*
X241337500Y-158725000D01*
X241314221Y-158723856D01*
X241291166Y-158720437D01*
X241268557Y-158714773D01*
X241246613Y-158706921D01*
X241225543Y-158696956D01*
X241205552Y-158684974D01*
X241186832Y-158671090D01*
X241169562Y-158655438D01*
X241153910Y-158638168D01*
X241140026Y-158619448D01*
X241128044Y-158599457D01*
X241118079Y-158578387D01*
X241110227Y-158556443D01*
X241104563Y-158533834D01*
X241101144Y-158510779D01*
X241100000Y-158487500D01*
X241100000Y-158012500D01*
X241101144Y-157989221D01*
X241104563Y-157966166D01*
X241110227Y-157943557D01*
X241118079Y-157921613D01*
X241128044Y-157900543D01*
X241140026Y-157880552D01*
X241153910Y-157861832D01*
X241169562Y-157844562D01*
X241186832Y-157828910D01*
X241205552Y-157815026D01*
X241225543Y-157803044D01*
X241246613Y-157793079D01*
X241268557Y-157785227D01*
X241291166Y-157779563D01*
X241314221Y-157776144D01*
X241337500Y-157775000D01*
X241912500Y-157775000D01*
X241935779Y-157776144D01*
X241935779Y-157776144D01*
G37*
D11*
X241625000Y-158250000D03*
D10*
G36*
X240185779Y-157776144D02*
G01*
X240208834Y-157779563D01*
X240231443Y-157785227D01*
X240253387Y-157793079D01*
X240274457Y-157803044D01*
X240294448Y-157815026D01*
X240313168Y-157828910D01*
X240330438Y-157844562D01*
X240346090Y-157861832D01*
X240359974Y-157880552D01*
X240371956Y-157900543D01*
X240381921Y-157921613D01*
X240389773Y-157943557D01*
X240395437Y-157966166D01*
X240398856Y-157989221D01*
X240400000Y-158012500D01*
X240400000Y-158487500D01*
X240398856Y-158510779D01*
X240395437Y-158533834D01*
X240389773Y-158556443D01*
X240381921Y-158578387D01*
X240371956Y-158599457D01*
X240359974Y-158619448D01*
X240346090Y-158638168D01*
X240330438Y-158655438D01*
X240313168Y-158671090D01*
X240294448Y-158684974D01*
X240274457Y-158696956D01*
X240253387Y-158706921D01*
X240231443Y-158714773D01*
X240208834Y-158720437D01*
X240185779Y-158723856D01*
X240162500Y-158725000D01*
X239587500Y-158725000D01*
X239564221Y-158723856D01*
X239541166Y-158720437D01*
X239518557Y-158714773D01*
X239496613Y-158706921D01*
X239475543Y-158696956D01*
X239455552Y-158684974D01*
X239436832Y-158671090D01*
X239419562Y-158655438D01*
X239403910Y-158638168D01*
X239390026Y-158619448D01*
X239378044Y-158599457D01*
X239368079Y-158578387D01*
X239360227Y-158556443D01*
X239354563Y-158533834D01*
X239351144Y-158510779D01*
X239350000Y-158487500D01*
X239350000Y-158012500D01*
X239351144Y-157989221D01*
X239354563Y-157966166D01*
X239360227Y-157943557D01*
X239368079Y-157921613D01*
X239378044Y-157900543D01*
X239390026Y-157880552D01*
X239403910Y-157861832D01*
X239419562Y-157844562D01*
X239436832Y-157828910D01*
X239455552Y-157815026D01*
X239475543Y-157803044D01*
X239496613Y-157793079D01*
X239518557Y-157785227D01*
X239541166Y-157779563D01*
X239564221Y-157776144D01*
X239587500Y-157775000D01*
X240162500Y-157775000D01*
X240185779Y-157776144D01*
X240185779Y-157776144D01*
G37*
D11*
X239875000Y-158250000D03*
D10*
G36*
X210185779Y-157776144D02*
G01*
X210208834Y-157779563D01*
X210231443Y-157785227D01*
X210253387Y-157793079D01*
X210274457Y-157803044D01*
X210294448Y-157815026D01*
X210313168Y-157828910D01*
X210330438Y-157844562D01*
X210346090Y-157861832D01*
X210359974Y-157880552D01*
X210371956Y-157900543D01*
X210381921Y-157921613D01*
X210389773Y-157943557D01*
X210395437Y-157966166D01*
X210398856Y-157989221D01*
X210400000Y-158012500D01*
X210400000Y-158487500D01*
X210398856Y-158510779D01*
X210395437Y-158533834D01*
X210389773Y-158556443D01*
X210381921Y-158578387D01*
X210371956Y-158599457D01*
X210359974Y-158619448D01*
X210346090Y-158638168D01*
X210330438Y-158655438D01*
X210313168Y-158671090D01*
X210294448Y-158684974D01*
X210274457Y-158696956D01*
X210253387Y-158706921D01*
X210231443Y-158714773D01*
X210208834Y-158720437D01*
X210185779Y-158723856D01*
X210162500Y-158725000D01*
X209587500Y-158725000D01*
X209564221Y-158723856D01*
X209541166Y-158720437D01*
X209518557Y-158714773D01*
X209496613Y-158706921D01*
X209475543Y-158696956D01*
X209455552Y-158684974D01*
X209436832Y-158671090D01*
X209419562Y-158655438D01*
X209403910Y-158638168D01*
X209390026Y-158619448D01*
X209378044Y-158599457D01*
X209368079Y-158578387D01*
X209360227Y-158556443D01*
X209354563Y-158533834D01*
X209351144Y-158510779D01*
X209350000Y-158487500D01*
X209350000Y-158012500D01*
X209351144Y-157989221D01*
X209354563Y-157966166D01*
X209360227Y-157943557D01*
X209368079Y-157921613D01*
X209378044Y-157900543D01*
X209390026Y-157880552D01*
X209403910Y-157861832D01*
X209419562Y-157844562D01*
X209436832Y-157828910D01*
X209455552Y-157815026D01*
X209475543Y-157803044D01*
X209496613Y-157793079D01*
X209518557Y-157785227D01*
X209541166Y-157779563D01*
X209564221Y-157776144D01*
X209587500Y-157775000D01*
X210162500Y-157775000D01*
X210185779Y-157776144D01*
X210185779Y-157776144D01*
G37*
D11*
X209875000Y-158250000D03*
D10*
G36*
X211935779Y-157776144D02*
G01*
X211958834Y-157779563D01*
X211981443Y-157785227D01*
X212003387Y-157793079D01*
X212024457Y-157803044D01*
X212044448Y-157815026D01*
X212063168Y-157828910D01*
X212080438Y-157844562D01*
X212096090Y-157861832D01*
X212109974Y-157880552D01*
X212121956Y-157900543D01*
X212131921Y-157921613D01*
X212139773Y-157943557D01*
X212145437Y-157966166D01*
X212148856Y-157989221D01*
X212150000Y-158012500D01*
X212150000Y-158487500D01*
X212148856Y-158510779D01*
X212145437Y-158533834D01*
X212139773Y-158556443D01*
X212131921Y-158578387D01*
X212121956Y-158599457D01*
X212109974Y-158619448D01*
X212096090Y-158638168D01*
X212080438Y-158655438D01*
X212063168Y-158671090D01*
X212044448Y-158684974D01*
X212024457Y-158696956D01*
X212003387Y-158706921D01*
X211981443Y-158714773D01*
X211958834Y-158720437D01*
X211935779Y-158723856D01*
X211912500Y-158725000D01*
X211337500Y-158725000D01*
X211314221Y-158723856D01*
X211291166Y-158720437D01*
X211268557Y-158714773D01*
X211246613Y-158706921D01*
X211225543Y-158696956D01*
X211205552Y-158684974D01*
X211186832Y-158671090D01*
X211169562Y-158655438D01*
X211153910Y-158638168D01*
X211140026Y-158619448D01*
X211128044Y-158599457D01*
X211118079Y-158578387D01*
X211110227Y-158556443D01*
X211104563Y-158533834D01*
X211101144Y-158510779D01*
X211100000Y-158487500D01*
X211100000Y-158012500D01*
X211101144Y-157989221D01*
X211104563Y-157966166D01*
X211110227Y-157943557D01*
X211118079Y-157921613D01*
X211128044Y-157900543D01*
X211140026Y-157880552D01*
X211153910Y-157861832D01*
X211169562Y-157844562D01*
X211186832Y-157828910D01*
X211205552Y-157815026D01*
X211225543Y-157803044D01*
X211246613Y-157793079D01*
X211268557Y-157785227D01*
X211291166Y-157779563D01*
X211314221Y-157776144D01*
X211337500Y-157775000D01*
X211912500Y-157775000D01*
X211935779Y-157776144D01*
X211935779Y-157776144D01*
G37*
D11*
X211625000Y-158250000D03*
D10*
G36*
X122974505Y-185401204D02*
G01*
X122998773Y-185404804D01*
X123022572Y-185410765D01*
X123045671Y-185419030D01*
X123067850Y-185429520D01*
X123088893Y-185442132D01*
X123108599Y-185456747D01*
X123126777Y-185473223D01*
X123143253Y-185491401D01*
X123157868Y-185511107D01*
X123170480Y-185532150D01*
X123180970Y-185554329D01*
X123189235Y-185577428D01*
X123195196Y-185601227D01*
X123198796Y-185625495D01*
X123200000Y-185649999D01*
X123200000Y-186300001D01*
X123198796Y-186324505D01*
X123195196Y-186348773D01*
X123189235Y-186372572D01*
X123180970Y-186395671D01*
X123170480Y-186417850D01*
X123157868Y-186438893D01*
X123143253Y-186458599D01*
X123126777Y-186476777D01*
X123108599Y-186493253D01*
X123088893Y-186507868D01*
X123067850Y-186520480D01*
X123045671Y-186530970D01*
X123022572Y-186539235D01*
X122998773Y-186545196D01*
X122974505Y-186548796D01*
X122950001Y-186550000D01*
X122049999Y-186550000D01*
X122025495Y-186548796D01*
X122001227Y-186545196D01*
X121977428Y-186539235D01*
X121954329Y-186530970D01*
X121932150Y-186520480D01*
X121911107Y-186507868D01*
X121891401Y-186493253D01*
X121873223Y-186476777D01*
X121856747Y-186458599D01*
X121842132Y-186438893D01*
X121829520Y-186417850D01*
X121819030Y-186395671D01*
X121810765Y-186372572D01*
X121804804Y-186348773D01*
X121801204Y-186324505D01*
X121800000Y-186300001D01*
X121800000Y-185649999D01*
X121801204Y-185625495D01*
X121804804Y-185601227D01*
X121810765Y-185577428D01*
X121819030Y-185554329D01*
X121829520Y-185532150D01*
X121842132Y-185511107D01*
X121856747Y-185491401D01*
X121873223Y-185473223D01*
X121891401Y-185456747D01*
X121911107Y-185442132D01*
X121932150Y-185429520D01*
X121954329Y-185419030D01*
X121977428Y-185410765D01*
X122001227Y-185404804D01*
X122025495Y-185401204D01*
X122049999Y-185400000D01*
X122950001Y-185400000D01*
X122974505Y-185401204D01*
X122974505Y-185401204D01*
G37*
D12*
X122500000Y-185975000D03*
D10*
G36*
X122974505Y-187451204D02*
G01*
X122998773Y-187454804D01*
X123022572Y-187460765D01*
X123045671Y-187469030D01*
X123067850Y-187479520D01*
X123088893Y-187492132D01*
X123108599Y-187506747D01*
X123126777Y-187523223D01*
X123143253Y-187541401D01*
X123157868Y-187561107D01*
X123170480Y-187582150D01*
X123180970Y-187604329D01*
X123189235Y-187627428D01*
X123195196Y-187651227D01*
X123198796Y-187675495D01*
X123200000Y-187699999D01*
X123200000Y-188350001D01*
X123198796Y-188374505D01*
X123195196Y-188398773D01*
X123189235Y-188422572D01*
X123180970Y-188445671D01*
X123170480Y-188467850D01*
X123157868Y-188488893D01*
X123143253Y-188508599D01*
X123126777Y-188526777D01*
X123108599Y-188543253D01*
X123088893Y-188557868D01*
X123067850Y-188570480D01*
X123045671Y-188580970D01*
X123022572Y-188589235D01*
X122998773Y-188595196D01*
X122974505Y-188598796D01*
X122950001Y-188600000D01*
X122049999Y-188600000D01*
X122025495Y-188598796D01*
X122001227Y-188595196D01*
X121977428Y-188589235D01*
X121954329Y-188580970D01*
X121932150Y-188570480D01*
X121911107Y-188557868D01*
X121891401Y-188543253D01*
X121873223Y-188526777D01*
X121856747Y-188508599D01*
X121842132Y-188488893D01*
X121829520Y-188467850D01*
X121819030Y-188445671D01*
X121810765Y-188422572D01*
X121804804Y-188398773D01*
X121801204Y-188374505D01*
X121800000Y-188350001D01*
X121800000Y-187699999D01*
X121801204Y-187675495D01*
X121804804Y-187651227D01*
X121810765Y-187627428D01*
X121819030Y-187604329D01*
X121829520Y-187582150D01*
X121842132Y-187561107D01*
X121856747Y-187541401D01*
X121873223Y-187523223D01*
X121891401Y-187506747D01*
X121911107Y-187492132D01*
X121932150Y-187479520D01*
X121954329Y-187469030D01*
X121977428Y-187460765D01*
X122001227Y-187454804D01*
X122025495Y-187451204D01*
X122049999Y-187450000D01*
X122950001Y-187450000D01*
X122974505Y-187451204D01*
X122974505Y-187451204D01*
G37*
D12*
X122500000Y-188025000D03*
D10*
G36*
X130474505Y-192901204D02*
G01*
X130498773Y-192904804D01*
X130522572Y-192910765D01*
X130545671Y-192919030D01*
X130567850Y-192929520D01*
X130588893Y-192942132D01*
X130608599Y-192956747D01*
X130626777Y-192973223D01*
X130643253Y-192991401D01*
X130657868Y-193011107D01*
X130670480Y-193032150D01*
X130680970Y-193054329D01*
X130689235Y-193077428D01*
X130695196Y-193101227D01*
X130698796Y-193125495D01*
X130700000Y-193149999D01*
X130700000Y-193800001D01*
X130698796Y-193824505D01*
X130695196Y-193848773D01*
X130689235Y-193872572D01*
X130680970Y-193895671D01*
X130670480Y-193917850D01*
X130657868Y-193938893D01*
X130643253Y-193958599D01*
X130626777Y-193976777D01*
X130608599Y-193993253D01*
X130588893Y-194007868D01*
X130567850Y-194020480D01*
X130545671Y-194030970D01*
X130522572Y-194039235D01*
X130498773Y-194045196D01*
X130474505Y-194048796D01*
X130450001Y-194050000D01*
X129549999Y-194050000D01*
X129525495Y-194048796D01*
X129501227Y-194045196D01*
X129477428Y-194039235D01*
X129454329Y-194030970D01*
X129432150Y-194020480D01*
X129411107Y-194007868D01*
X129391401Y-193993253D01*
X129373223Y-193976777D01*
X129356747Y-193958599D01*
X129342132Y-193938893D01*
X129329520Y-193917850D01*
X129319030Y-193895671D01*
X129310765Y-193872572D01*
X129304804Y-193848773D01*
X129301204Y-193824505D01*
X129300000Y-193800001D01*
X129300000Y-193149999D01*
X129301204Y-193125495D01*
X129304804Y-193101227D01*
X129310765Y-193077428D01*
X129319030Y-193054329D01*
X129329520Y-193032150D01*
X129342132Y-193011107D01*
X129356747Y-192991401D01*
X129373223Y-192973223D01*
X129391401Y-192956747D01*
X129411107Y-192942132D01*
X129432150Y-192929520D01*
X129454329Y-192919030D01*
X129477428Y-192910765D01*
X129501227Y-192904804D01*
X129525495Y-192901204D01*
X129549999Y-192900000D01*
X130450001Y-192900000D01*
X130474505Y-192901204D01*
X130474505Y-192901204D01*
G37*
D12*
X130000000Y-193475000D03*
D10*
G36*
X130474505Y-194951204D02*
G01*
X130498773Y-194954804D01*
X130522572Y-194960765D01*
X130545671Y-194969030D01*
X130567850Y-194979520D01*
X130588893Y-194992132D01*
X130608599Y-195006747D01*
X130626777Y-195023223D01*
X130643253Y-195041401D01*
X130657868Y-195061107D01*
X130670480Y-195082150D01*
X130680970Y-195104329D01*
X130689235Y-195127428D01*
X130695196Y-195151227D01*
X130698796Y-195175495D01*
X130700000Y-195199999D01*
X130700000Y-195850001D01*
X130698796Y-195874505D01*
X130695196Y-195898773D01*
X130689235Y-195922572D01*
X130680970Y-195945671D01*
X130670480Y-195967850D01*
X130657868Y-195988893D01*
X130643253Y-196008599D01*
X130626777Y-196026777D01*
X130608599Y-196043253D01*
X130588893Y-196057868D01*
X130567850Y-196070480D01*
X130545671Y-196080970D01*
X130522572Y-196089235D01*
X130498773Y-196095196D01*
X130474505Y-196098796D01*
X130450001Y-196100000D01*
X129549999Y-196100000D01*
X129525495Y-196098796D01*
X129501227Y-196095196D01*
X129477428Y-196089235D01*
X129454329Y-196080970D01*
X129432150Y-196070480D01*
X129411107Y-196057868D01*
X129391401Y-196043253D01*
X129373223Y-196026777D01*
X129356747Y-196008599D01*
X129342132Y-195988893D01*
X129329520Y-195967850D01*
X129319030Y-195945671D01*
X129310765Y-195922572D01*
X129304804Y-195898773D01*
X129301204Y-195874505D01*
X129300000Y-195850001D01*
X129300000Y-195199999D01*
X129301204Y-195175495D01*
X129304804Y-195151227D01*
X129310765Y-195127428D01*
X129319030Y-195104329D01*
X129329520Y-195082150D01*
X129342132Y-195061107D01*
X129356747Y-195041401D01*
X129373223Y-195023223D01*
X129391401Y-195006747D01*
X129411107Y-194992132D01*
X129432150Y-194979520D01*
X129454329Y-194969030D01*
X129477428Y-194960765D01*
X129501227Y-194954804D01*
X129525495Y-194951204D01*
X129549999Y-194950000D01*
X130450001Y-194950000D01*
X130474505Y-194951204D01*
X130474505Y-194951204D01*
G37*
D12*
X130000000Y-195525000D03*
D10*
G36*
X128224505Y-192901204D02*
G01*
X128248773Y-192904804D01*
X128272572Y-192910765D01*
X128295671Y-192919030D01*
X128317850Y-192929520D01*
X128338893Y-192942132D01*
X128358599Y-192956747D01*
X128376777Y-192973223D01*
X128393253Y-192991401D01*
X128407868Y-193011107D01*
X128420480Y-193032150D01*
X128430970Y-193054329D01*
X128439235Y-193077428D01*
X128445196Y-193101227D01*
X128448796Y-193125495D01*
X128450000Y-193149999D01*
X128450000Y-193800001D01*
X128448796Y-193824505D01*
X128445196Y-193848773D01*
X128439235Y-193872572D01*
X128430970Y-193895671D01*
X128420480Y-193917850D01*
X128407868Y-193938893D01*
X128393253Y-193958599D01*
X128376777Y-193976777D01*
X128358599Y-193993253D01*
X128338893Y-194007868D01*
X128317850Y-194020480D01*
X128295671Y-194030970D01*
X128272572Y-194039235D01*
X128248773Y-194045196D01*
X128224505Y-194048796D01*
X128200001Y-194050000D01*
X127299999Y-194050000D01*
X127275495Y-194048796D01*
X127251227Y-194045196D01*
X127227428Y-194039235D01*
X127204329Y-194030970D01*
X127182150Y-194020480D01*
X127161107Y-194007868D01*
X127141401Y-193993253D01*
X127123223Y-193976777D01*
X127106747Y-193958599D01*
X127092132Y-193938893D01*
X127079520Y-193917850D01*
X127069030Y-193895671D01*
X127060765Y-193872572D01*
X127054804Y-193848773D01*
X127051204Y-193824505D01*
X127050000Y-193800001D01*
X127050000Y-193149999D01*
X127051204Y-193125495D01*
X127054804Y-193101227D01*
X127060765Y-193077428D01*
X127069030Y-193054329D01*
X127079520Y-193032150D01*
X127092132Y-193011107D01*
X127106747Y-192991401D01*
X127123223Y-192973223D01*
X127141401Y-192956747D01*
X127161107Y-192942132D01*
X127182150Y-192929520D01*
X127204329Y-192919030D01*
X127227428Y-192910765D01*
X127251227Y-192904804D01*
X127275495Y-192901204D01*
X127299999Y-192900000D01*
X128200001Y-192900000D01*
X128224505Y-192901204D01*
X128224505Y-192901204D01*
G37*
D12*
X127750000Y-193475000D03*
D10*
G36*
X128224505Y-194951204D02*
G01*
X128248773Y-194954804D01*
X128272572Y-194960765D01*
X128295671Y-194969030D01*
X128317850Y-194979520D01*
X128338893Y-194992132D01*
X128358599Y-195006747D01*
X128376777Y-195023223D01*
X128393253Y-195041401D01*
X128407868Y-195061107D01*
X128420480Y-195082150D01*
X128430970Y-195104329D01*
X128439235Y-195127428D01*
X128445196Y-195151227D01*
X128448796Y-195175495D01*
X128450000Y-195199999D01*
X128450000Y-195850001D01*
X128448796Y-195874505D01*
X128445196Y-195898773D01*
X128439235Y-195922572D01*
X128430970Y-195945671D01*
X128420480Y-195967850D01*
X128407868Y-195988893D01*
X128393253Y-196008599D01*
X128376777Y-196026777D01*
X128358599Y-196043253D01*
X128338893Y-196057868D01*
X128317850Y-196070480D01*
X128295671Y-196080970D01*
X128272572Y-196089235D01*
X128248773Y-196095196D01*
X128224505Y-196098796D01*
X128200001Y-196100000D01*
X127299999Y-196100000D01*
X127275495Y-196098796D01*
X127251227Y-196095196D01*
X127227428Y-196089235D01*
X127204329Y-196080970D01*
X127182150Y-196070480D01*
X127161107Y-196057868D01*
X127141401Y-196043253D01*
X127123223Y-196026777D01*
X127106747Y-196008599D01*
X127092132Y-195988893D01*
X127079520Y-195967850D01*
X127069030Y-195945671D01*
X127060765Y-195922572D01*
X127054804Y-195898773D01*
X127051204Y-195874505D01*
X127050000Y-195850001D01*
X127050000Y-195199999D01*
X127051204Y-195175495D01*
X127054804Y-195151227D01*
X127060765Y-195127428D01*
X127069030Y-195104329D01*
X127079520Y-195082150D01*
X127092132Y-195061107D01*
X127106747Y-195041401D01*
X127123223Y-195023223D01*
X127141401Y-195006747D01*
X127161107Y-194992132D01*
X127182150Y-194979520D01*
X127204329Y-194969030D01*
X127227428Y-194960765D01*
X127251227Y-194954804D01*
X127275495Y-194951204D01*
X127299999Y-194950000D01*
X128200001Y-194950000D01*
X128224505Y-194951204D01*
X128224505Y-194951204D01*
G37*
D12*
X127750000Y-195525000D03*
D10*
G36*
X125224505Y-187451204D02*
G01*
X125248773Y-187454804D01*
X125272572Y-187460765D01*
X125295671Y-187469030D01*
X125317850Y-187479520D01*
X125338893Y-187492132D01*
X125358599Y-187506747D01*
X125376777Y-187523223D01*
X125393253Y-187541401D01*
X125407868Y-187561107D01*
X125420480Y-187582150D01*
X125430970Y-187604329D01*
X125439235Y-187627428D01*
X125445196Y-187651227D01*
X125448796Y-187675495D01*
X125450000Y-187699999D01*
X125450000Y-188350001D01*
X125448796Y-188374505D01*
X125445196Y-188398773D01*
X125439235Y-188422572D01*
X125430970Y-188445671D01*
X125420480Y-188467850D01*
X125407868Y-188488893D01*
X125393253Y-188508599D01*
X125376777Y-188526777D01*
X125358599Y-188543253D01*
X125338893Y-188557868D01*
X125317850Y-188570480D01*
X125295671Y-188580970D01*
X125272572Y-188589235D01*
X125248773Y-188595196D01*
X125224505Y-188598796D01*
X125200001Y-188600000D01*
X124299999Y-188600000D01*
X124275495Y-188598796D01*
X124251227Y-188595196D01*
X124227428Y-188589235D01*
X124204329Y-188580970D01*
X124182150Y-188570480D01*
X124161107Y-188557868D01*
X124141401Y-188543253D01*
X124123223Y-188526777D01*
X124106747Y-188508599D01*
X124092132Y-188488893D01*
X124079520Y-188467850D01*
X124069030Y-188445671D01*
X124060765Y-188422572D01*
X124054804Y-188398773D01*
X124051204Y-188374505D01*
X124050000Y-188350001D01*
X124050000Y-187699999D01*
X124051204Y-187675495D01*
X124054804Y-187651227D01*
X124060765Y-187627428D01*
X124069030Y-187604329D01*
X124079520Y-187582150D01*
X124092132Y-187561107D01*
X124106747Y-187541401D01*
X124123223Y-187523223D01*
X124141401Y-187506747D01*
X124161107Y-187492132D01*
X124182150Y-187479520D01*
X124204329Y-187469030D01*
X124227428Y-187460765D01*
X124251227Y-187454804D01*
X124275495Y-187451204D01*
X124299999Y-187450000D01*
X125200001Y-187450000D01*
X125224505Y-187451204D01*
X125224505Y-187451204D01*
G37*
D12*
X124750000Y-188025000D03*
D10*
G36*
X125224505Y-185401204D02*
G01*
X125248773Y-185404804D01*
X125272572Y-185410765D01*
X125295671Y-185419030D01*
X125317850Y-185429520D01*
X125338893Y-185442132D01*
X125358599Y-185456747D01*
X125376777Y-185473223D01*
X125393253Y-185491401D01*
X125407868Y-185511107D01*
X125420480Y-185532150D01*
X125430970Y-185554329D01*
X125439235Y-185577428D01*
X125445196Y-185601227D01*
X125448796Y-185625495D01*
X125450000Y-185649999D01*
X125450000Y-186300001D01*
X125448796Y-186324505D01*
X125445196Y-186348773D01*
X125439235Y-186372572D01*
X125430970Y-186395671D01*
X125420480Y-186417850D01*
X125407868Y-186438893D01*
X125393253Y-186458599D01*
X125376777Y-186476777D01*
X125358599Y-186493253D01*
X125338893Y-186507868D01*
X125317850Y-186520480D01*
X125295671Y-186530970D01*
X125272572Y-186539235D01*
X125248773Y-186545196D01*
X125224505Y-186548796D01*
X125200001Y-186550000D01*
X124299999Y-186550000D01*
X124275495Y-186548796D01*
X124251227Y-186545196D01*
X124227428Y-186539235D01*
X124204329Y-186530970D01*
X124182150Y-186520480D01*
X124161107Y-186507868D01*
X124141401Y-186493253D01*
X124123223Y-186476777D01*
X124106747Y-186458599D01*
X124092132Y-186438893D01*
X124079520Y-186417850D01*
X124069030Y-186395671D01*
X124060765Y-186372572D01*
X124054804Y-186348773D01*
X124051204Y-186324505D01*
X124050000Y-186300001D01*
X124050000Y-185649999D01*
X124051204Y-185625495D01*
X124054804Y-185601227D01*
X124060765Y-185577428D01*
X124069030Y-185554329D01*
X124079520Y-185532150D01*
X124092132Y-185511107D01*
X124106747Y-185491401D01*
X124123223Y-185473223D01*
X124141401Y-185456747D01*
X124161107Y-185442132D01*
X124182150Y-185429520D01*
X124204329Y-185419030D01*
X124227428Y-185410765D01*
X124251227Y-185404804D01*
X124275495Y-185401204D01*
X124299999Y-185400000D01*
X125200001Y-185400000D01*
X125224505Y-185401204D01*
X125224505Y-185401204D01*
G37*
D12*
X124750000Y-185975000D03*
D10*
G36*
X181935779Y-157776144D02*
G01*
X181958834Y-157779563D01*
X181981443Y-157785227D01*
X182003387Y-157793079D01*
X182024457Y-157803044D01*
X182044448Y-157815026D01*
X182063168Y-157828910D01*
X182080438Y-157844562D01*
X182096090Y-157861832D01*
X182109974Y-157880552D01*
X182121956Y-157900543D01*
X182131921Y-157921613D01*
X182139773Y-157943557D01*
X182145437Y-157966166D01*
X182148856Y-157989221D01*
X182150000Y-158012500D01*
X182150000Y-158487500D01*
X182148856Y-158510779D01*
X182145437Y-158533834D01*
X182139773Y-158556443D01*
X182131921Y-158578387D01*
X182121956Y-158599457D01*
X182109974Y-158619448D01*
X182096090Y-158638168D01*
X182080438Y-158655438D01*
X182063168Y-158671090D01*
X182044448Y-158684974D01*
X182024457Y-158696956D01*
X182003387Y-158706921D01*
X181981443Y-158714773D01*
X181958834Y-158720437D01*
X181935779Y-158723856D01*
X181912500Y-158725000D01*
X181337500Y-158725000D01*
X181314221Y-158723856D01*
X181291166Y-158720437D01*
X181268557Y-158714773D01*
X181246613Y-158706921D01*
X181225543Y-158696956D01*
X181205552Y-158684974D01*
X181186832Y-158671090D01*
X181169562Y-158655438D01*
X181153910Y-158638168D01*
X181140026Y-158619448D01*
X181128044Y-158599457D01*
X181118079Y-158578387D01*
X181110227Y-158556443D01*
X181104563Y-158533834D01*
X181101144Y-158510779D01*
X181100000Y-158487500D01*
X181100000Y-158012500D01*
X181101144Y-157989221D01*
X181104563Y-157966166D01*
X181110227Y-157943557D01*
X181118079Y-157921613D01*
X181128044Y-157900543D01*
X181140026Y-157880552D01*
X181153910Y-157861832D01*
X181169562Y-157844562D01*
X181186832Y-157828910D01*
X181205552Y-157815026D01*
X181225543Y-157803044D01*
X181246613Y-157793079D01*
X181268557Y-157785227D01*
X181291166Y-157779563D01*
X181314221Y-157776144D01*
X181337500Y-157775000D01*
X181912500Y-157775000D01*
X181935779Y-157776144D01*
X181935779Y-157776144D01*
G37*
D11*
X181625000Y-158250000D03*
D10*
G36*
X180185779Y-157776144D02*
G01*
X180208834Y-157779563D01*
X180231443Y-157785227D01*
X180253387Y-157793079D01*
X180274457Y-157803044D01*
X180294448Y-157815026D01*
X180313168Y-157828910D01*
X180330438Y-157844562D01*
X180346090Y-157861832D01*
X180359974Y-157880552D01*
X180371956Y-157900543D01*
X180381921Y-157921613D01*
X180389773Y-157943557D01*
X180395437Y-157966166D01*
X180398856Y-157989221D01*
X180400000Y-158012500D01*
X180400000Y-158487500D01*
X180398856Y-158510779D01*
X180395437Y-158533834D01*
X180389773Y-158556443D01*
X180381921Y-158578387D01*
X180371956Y-158599457D01*
X180359974Y-158619448D01*
X180346090Y-158638168D01*
X180330438Y-158655438D01*
X180313168Y-158671090D01*
X180294448Y-158684974D01*
X180274457Y-158696956D01*
X180253387Y-158706921D01*
X180231443Y-158714773D01*
X180208834Y-158720437D01*
X180185779Y-158723856D01*
X180162500Y-158725000D01*
X179587500Y-158725000D01*
X179564221Y-158723856D01*
X179541166Y-158720437D01*
X179518557Y-158714773D01*
X179496613Y-158706921D01*
X179475543Y-158696956D01*
X179455552Y-158684974D01*
X179436832Y-158671090D01*
X179419562Y-158655438D01*
X179403910Y-158638168D01*
X179390026Y-158619448D01*
X179378044Y-158599457D01*
X179368079Y-158578387D01*
X179360227Y-158556443D01*
X179354563Y-158533834D01*
X179351144Y-158510779D01*
X179350000Y-158487500D01*
X179350000Y-158012500D01*
X179351144Y-157989221D01*
X179354563Y-157966166D01*
X179360227Y-157943557D01*
X179368079Y-157921613D01*
X179378044Y-157900543D01*
X179390026Y-157880552D01*
X179403910Y-157861832D01*
X179419562Y-157844562D01*
X179436832Y-157828910D01*
X179455552Y-157815026D01*
X179475543Y-157803044D01*
X179496613Y-157793079D01*
X179518557Y-157785227D01*
X179541166Y-157779563D01*
X179564221Y-157776144D01*
X179587500Y-157775000D01*
X180162500Y-157775000D01*
X180185779Y-157776144D01*
X180185779Y-157776144D01*
G37*
D11*
X179875000Y-158250000D03*
D10*
G36*
X192724504Y-125876204D02*
G01*
X192748773Y-125879804D01*
X192772571Y-125885765D01*
X192795671Y-125894030D01*
X192817849Y-125904520D01*
X192838893Y-125917133D01*
X192858598Y-125931747D01*
X192876777Y-125948223D01*
X192893253Y-125966402D01*
X192907867Y-125986107D01*
X192920480Y-126007151D01*
X192930970Y-126029329D01*
X192939235Y-126052429D01*
X192945196Y-126076227D01*
X192948796Y-126100496D01*
X192950000Y-126125000D01*
X192950000Y-127375000D01*
X192948796Y-127399504D01*
X192945196Y-127423773D01*
X192939235Y-127447571D01*
X192930970Y-127470671D01*
X192920480Y-127492849D01*
X192907867Y-127513893D01*
X192893253Y-127533598D01*
X192876777Y-127551777D01*
X192858598Y-127568253D01*
X192838893Y-127582867D01*
X192817849Y-127595480D01*
X192795671Y-127605970D01*
X192772571Y-127614235D01*
X192748773Y-127620196D01*
X192724504Y-127623796D01*
X192700000Y-127625000D01*
X191775000Y-127625000D01*
X191750496Y-127623796D01*
X191726227Y-127620196D01*
X191702429Y-127614235D01*
X191679329Y-127605970D01*
X191657151Y-127595480D01*
X191636107Y-127582867D01*
X191616402Y-127568253D01*
X191598223Y-127551777D01*
X191581747Y-127533598D01*
X191567133Y-127513893D01*
X191554520Y-127492849D01*
X191544030Y-127470671D01*
X191535765Y-127447571D01*
X191529804Y-127423773D01*
X191526204Y-127399504D01*
X191525000Y-127375000D01*
X191525000Y-126125000D01*
X191526204Y-126100496D01*
X191529804Y-126076227D01*
X191535765Y-126052429D01*
X191544030Y-126029329D01*
X191554520Y-126007151D01*
X191567133Y-125986107D01*
X191581747Y-125966402D01*
X191598223Y-125948223D01*
X191616402Y-125931747D01*
X191636107Y-125917133D01*
X191657151Y-125904520D01*
X191679329Y-125894030D01*
X191702429Y-125885765D01*
X191726227Y-125879804D01*
X191750496Y-125876204D01*
X191775000Y-125875000D01*
X192700000Y-125875000D01*
X192724504Y-125876204D01*
X192724504Y-125876204D01*
G37*
D13*
X192237500Y-126750000D03*
D10*
G36*
X189749504Y-125876204D02*
G01*
X189773773Y-125879804D01*
X189797571Y-125885765D01*
X189820671Y-125894030D01*
X189842849Y-125904520D01*
X189863893Y-125917133D01*
X189883598Y-125931747D01*
X189901777Y-125948223D01*
X189918253Y-125966402D01*
X189932867Y-125986107D01*
X189945480Y-126007151D01*
X189955970Y-126029329D01*
X189964235Y-126052429D01*
X189970196Y-126076227D01*
X189973796Y-126100496D01*
X189975000Y-126125000D01*
X189975000Y-127375000D01*
X189973796Y-127399504D01*
X189970196Y-127423773D01*
X189964235Y-127447571D01*
X189955970Y-127470671D01*
X189945480Y-127492849D01*
X189932867Y-127513893D01*
X189918253Y-127533598D01*
X189901777Y-127551777D01*
X189883598Y-127568253D01*
X189863893Y-127582867D01*
X189842849Y-127595480D01*
X189820671Y-127605970D01*
X189797571Y-127614235D01*
X189773773Y-127620196D01*
X189749504Y-127623796D01*
X189725000Y-127625000D01*
X188800000Y-127625000D01*
X188775496Y-127623796D01*
X188751227Y-127620196D01*
X188727429Y-127614235D01*
X188704329Y-127605970D01*
X188682151Y-127595480D01*
X188661107Y-127582867D01*
X188641402Y-127568253D01*
X188623223Y-127551777D01*
X188606747Y-127533598D01*
X188592133Y-127513893D01*
X188579520Y-127492849D01*
X188569030Y-127470671D01*
X188560765Y-127447571D01*
X188554804Y-127423773D01*
X188551204Y-127399504D01*
X188550000Y-127375000D01*
X188550000Y-126125000D01*
X188551204Y-126100496D01*
X188554804Y-126076227D01*
X188560765Y-126052429D01*
X188569030Y-126029329D01*
X188579520Y-126007151D01*
X188592133Y-125986107D01*
X188606747Y-125966402D01*
X188623223Y-125948223D01*
X188641402Y-125931747D01*
X188661107Y-125917133D01*
X188682151Y-125904520D01*
X188704329Y-125894030D01*
X188727429Y-125885765D01*
X188751227Y-125879804D01*
X188775496Y-125876204D01*
X188800000Y-125875000D01*
X189725000Y-125875000D01*
X189749504Y-125876204D01*
X189749504Y-125876204D01*
G37*
D13*
X189262500Y-126750000D03*
D10*
G36*
X307624505Y-65801204D02*
G01*
X307648773Y-65804804D01*
X307672572Y-65810765D01*
X307695671Y-65819030D01*
X307717850Y-65829520D01*
X307738893Y-65842132D01*
X307758599Y-65856747D01*
X307776777Y-65873223D01*
X307793253Y-65891401D01*
X307807868Y-65911107D01*
X307820480Y-65932150D01*
X307830970Y-65954329D01*
X307839235Y-65977428D01*
X307845196Y-66001227D01*
X307848796Y-66025495D01*
X307850000Y-66049999D01*
X307850000Y-66950001D01*
X307848796Y-66974505D01*
X307845196Y-66998773D01*
X307839235Y-67022572D01*
X307830970Y-67045671D01*
X307820480Y-67067850D01*
X307807868Y-67088893D01*
X307793253Y-67108599D01*
X307776777Y-67126777D01*
X307758599Y-67143253D01*
X307738893Y-67157868D01*
X307717850Y-67170480D01*
X307695671Y-67180970D01*
X307672572Y-67189235D01*
X307648773Y-67195196D01*
X307624505Y-67198796D01*
X307600001Y-67200000D01*
X306949999Y-67200000D01*
X306925495Y-67198796D01*
X306901227Y-67195196D01*
X306877428Y-67189235D01*
X306854329Y-67180970D01*
X306832150Y-67170480D01*
X306811107Y-67157868D01*
X306791401Y-67143253D01*
X306773223Y-67126777D01*
X306756747Y-67108599D01*
X306742132Y-67088893D01*
X306729520Y-67067850D01*
X306719030Y-67045671D01*
X306710765Y-67022572D01*
X306704804Y-66998773D01*
X306701204Y-66974505D01*
X306700000Y-66950001D01*
X306700000Y-66049999D01*
X306701204Y-66025495D01*
X306704804Y-66001227D01*
X306710765Y-65977428D01*
X306719030Y-65954329D01*
X306729520Y-65932150D01*
X306742132Y-65911107D01*
X306756747Y-65891401D01*
X306773223Y-65873223D01*
X306791401Y-65856747D01*
X306811107Y-65842132D01*
X306832150Y-65829520D01*
X306854329Y-65819030D01*
X306877428Y-65810765D01*
X306901227Y-65804804D01*
X306925495Y-65801204D01*
X306949999Y-65800000D01*
X307600001Y-65800000D01*
X307624505Y-65801204D01*
X307624505Y-65801204D01*
G37*
D12*
X307275000Y-66500000D03*
D10*
G36*
X305574505Y-65801204D02*
G01*
X305598773Y-65804804D01*
X305622572Y-65810765D01*
X305645671Y-65819030D01*
X305667850Y-65829520D01*
X305688893Y-65842132D01*
X305708599Y-65856747D01*
X305726777Y-65873223D01*
X305743253Y-65891401D01*
X305757868Y-65911107D01*
X305770480Y-65932150D01*
X305780970Y-65954329D01*
X305789235Y-65977428D01*
X305795196Y-66001227D01*
X305798796Y-66025495D01*
X305800000Y-66049999D01*
X305800000Y-66950001D01*
X305798796Y-66974505D01*
X305795196Y-66998773D01*
X305789235Y-67022572D01*
X305780970Y-67045671D01*
X305770480Y-67067850D01*
X305757868Y-67088893D01*
X305743253Y-67108599D01*
X305726777Y-67126777D01*
X305708599Y-67143253D01*
X305688893Y-67157868D01*
X305667850Y-67170480D01*
X305645671Y-67180970D01*
X305622572Y-67189235D01*
X305598773Y-67195196D01*
X305574505Y-67198796D01*
X305550001Y-67200000D01*
X304899999Y-67200000D01*
X304875495Y-67198796D01*
X304851227Y-67195196D01*
X304827428Y-67189235D01*
X304804329Y-67180970D01*
X304782150Y-67170480D01*
X304761107Y-67157868D01*
X304741401Y-67143253D01*
X304723223Y-67126777D01*
X304706747Y-67108599D01*
X304692132Y-67088893D01*
X304679520Y-67067850D01*
X304669030Y-67045671D01*
X304660765Y-67022572D01*
X304654804Y-66998773D01*
X304651204Y-66974505D01*
X304650000Y-66950001D01*
X304650000Y-66049999D01*
X304651204Y-66025495D01*
X304654804Y-66001227D01*
X304660765Y-65977428D01*
X304669030Y-65954329D01*
X304679520Y-65932150D01*
X304692132Y-65911107D01*
X304706747Y-65891401D01*
X304723223Y-65873223D01*
X304741401Y-65856747D01*
X304761107Y-65842132D01*
X304782150Y-65829520D01*
X304804329Y-65819030D01*
X304827428Y-65810765D01*
X304851227Y-65804804D01*
X304875495Y-65801204D01*
X304899999Y-65800000D01*
X305550001Y-65800000D01*
X305574505Y-65801204D01*
X305574505Y-65801204D01*
G37*
D12*
X305225000Y-66500000D03*
D10*
G36*
X117624505Y-65801204D02*
G01*
X117648773Y-65804804D01*
X117672572Y-65810765D01*
X117695671Y-65819030D01*
X117717850Y-65829520D01*
X117738893Y-65842132D01*
X117758599Y-65856747D01*
X117776777Y-65873223D01*
X117793253Y-65891401D01*
X117807868Y-65911107D01*
X117820480Y-65932150D01*
X117830970Y-65954329D01*
X117839235Y-65977428D01*
X117845196Y-66001227D01*
X117848796Y-66025495D01*
X117850000Y-66049999D01*
X117850000Y-66950001D01*
X117848796Y-66974505D01*
X117845196Y-66998773D01*
X117839235Y-67022572D01*
X117830970Y-67045671D01*
X117820480Y-67067850D01*
X117807868Y-67088893D01*
X117793253Y-67108599D01*
X117776777Y-67126777D01*
X117758599Y-67143253D01*
X117738893Y-67157868D01*
X117717850Y-67170480D01*
X117695671Y-67180970D01*
X117672572Y-67189235D01*
X117648773Y-67195196D01*
X117624505Y-67198796D01*
X117600001Y-67200000D01*
X116949999Y-67200000D01*
X116925495Y-67198796D01*
X116901227Y-67195196D01*
X116877428Y-67189235D01*
X116854329Y-67180970D01*
X116832150Y-67170480D01*
X116811107Y-67157868D01*
X116791401Y-67143253D01*
X116773223Y-67126777D01*
X116756747Y-67108599D01*
X116742132Y-67088893D01*
X116729520Y-67067850D01*
X116719030Y-67045671D01*
X116710765Y-67022572D01*
X116704804Y-66998773D01*
X116701204Y-66974505D01*
X116700000Y-66950001D01*
X116700000Y-66049999D01*
X116701204Y-66025495D01*
X116704804Y-66001227D01*
X116710765Y-65977428D01*
X116719030Y-65954329D01*
X116729520Y-65932150D01*
X116742132Y-65911107D01*
X116756747Y-65891401D01*
X116773223Y-65873223D01*
X116791401Y-65856747D01*
X116811107Y-65842132D01*
X116832150Y-65829520D01*
X116854329Y-65819030D01*
X116877428Y-65810765D01*
X116901227Y-65804804D01*
X116925495Y-65801204D01*
X116949999Y-65800000D01*
X117600001Y-65800000D01*
X117624505Y-65801204D01*
X117624505Y-65801204D01*
G37*
D12*
X117275000Y-66500000D03*
D10*
G36*
X115574505Y-65801204D02*
G01*
X115598773Y-65804804D01*
X115622572Y-65810765D01*
X115645671Y-65819030D01*
X115667850Y-65829520D01*
X115688893Y-65842132D01*
X115708599Y-65856747D01*
X115726777Y-65873223D01*
X115743253Y-65891401D01*
X115757868Y-65911107D01*
X115770480Y-65932150D01*
X115780970Y-65954329D01*
X115789235Y-65977428D01*
X115795196Y-66001227D01*
X115798796Y-66025495D01*
X115800000Y-66049999D01*
X115800000Y-66950001D01*
X115798796Y-66974505D01*
X115795196Y-66998773D01*
X115789235Y-67022572D01*
X115780970Y-67045671D01*
X115770480Y-67067850D01*
X115757868Y-67088893D01*
X115743253Y-67108599D01*
X115726777Y-67126777D01*
X115708599Y-67143253D01*
X115688893Y-67157868D01*
X115667850Y-67170480D01*
X115645671Y-67180970D01*
X115622572Y-67189235D01*
X115598773Y-67195196D01*
X115574505Y-67198796D01*
X115550001Y-67200000D01*
X114899999Y-67200000D01*
X114875495Y-67198796D01*
X114851227Y-67195196D01*
X114827428Y-67189235D01*
X114804329Y-67180970D01*
X114782150Y-67170480D01*
X114761107Y-67157868D01*
X114741401Y-67143253D01*
X114723223Y-67126777D01*
X114706747Y-67108599D01*
X114692132Y-67088893D01*
X114679520Y-67067850D01*
X114669030Y-67045671D01*
X114660765Y-67022572D01*
X114654804Y-66998773D01*
X114651204Y-66974505D01*
X114650000Y-66950001D01*
X114650000Y-66049999D01*
X114651204Y-66025495D01*
X114654804Y-66001227D01*
X114660765Y-65977428D01*
X114669030Y-65954329D01*
X114679520Y-65932150D01*
X114692132Y-65911107D01*
X114706747Y-65891401D01*
X114723223Y-65873223D01*
X114741401Y-65856747D01*
X114761107Y-65842132D01*
X114782150Y-65829520D01*
X114804329Y-65819030D01*
X114827428Y-65810765D01*
X114851227Y-65804804D01*
X114875495Y-65801204D01*
X114899999Y-65800000D01*
X115550001Y-65800000D01*
X115574505Y-65801204D01*
X115574505Y-65801204D01*
G37*
D12*
X115225000Y-66500000D03*
D10*
G36*
X115574505Y-195301204D02*
G01*
X115598773Y-195304804D01*
X115622572Y-195310765D01*
X115645671Y-195319030D01*
X115667850Y-195329520D01*
X115688893Y-195342132D01*
X115708599Y-195356747D01*
X115726777Y-195373223D01*
X115743253Y-195391401D01*
X115757868Y-195411107D01*
X115770480Y-195432150D01*
X115780970Y-195454329D01*
X115789235Y-195477428D01*
X115795196Y-195501227D01*
X115798796Y-195525495D01*
X115800000Y-195549999D01*
X115800000Y-196450001D01*
X115798796Y-196474505D01*
X115795196Y-196498773D01*
X115789235Y-196522572D01*
X115780970Y-196545671D01*
X115770480Y-196567850D01*
X115757868Y-196588893D01*
X115743253Y-196608599D01*
X115726777Y-196626777D01*
X115708599Y-196643253D01*
X115688893Y-196657868D01*
X115667850Y-196670480D01*
X115645671Y-196680970D01*
X115622572Y-196689235D01*
X115598773Y-196695196D01*
X115574505Y-196698796D01*
X115550001Y-196700000D01*
X114899999Y-196700000D01*
X114875495Y-196698796D01*
X114851227Y-196695196D01*
X114827428Y-196689235D01*
X114804329Y-196680970D01*
X114782150Y-196670480D01*
X114761107Y-196657868D01*
X114741401Y-196643253D01*
X114723223Y-196626777D01*
X114706747Y-196608599D01*
X114692132Y-196588893D01*
X114679520Y-196567850D01*
X114669030Y-196545671D01*
X114660765Y-196522572D01*
X114654804Y-196498773D01*
X114651204Y-196474505D01*
X114650000Y-196450001D01*
X114650000Y-195549999D01*
X114651204Y-195525495D01*
X114654804Y-195501227D01*
X114660765Y-195477428D01*
X114669030Y-195454329D01*
X114679520Y-195432150D01*
X114692132Y-195411107D01*
X114706747Y-195391401D01*
X114723223Y-195373223D01*
X114741401Y-195356747D01*
X114761107Y-195342132D01*
X114782150Y-195329520D01*
X114804329Y-195319030D01*
X114827428Y-195310765D01*
X114851227Y-195304804D01*
X114875495Y-195301204D01*
X114899999Y-195300000D01*
X115550001Y-195300000D01*
X115574505Y-195301204D01*
X115574505Y-195301204D01*
G37*
D12*
X115225000Y-196000000D03*
D10*
G36*
X117624505Y-195301204D02*
G01*
X117648773Y-195304804D01*
X117672572Y-195310765D01*
X117695671Y-195319030D01*
X117717850Y-195329520D01*
X117738893Y-195342132D01*
X117758599Y-195356747D01*
X117776777Y-195373223D01*
X117793253Y-195391401D01*
X117807868Y-195411107D01*
X117820480Y-195432150D01*
X117830970Y-195454329D01*
X117839235Y-195477428D01*
X117845196Y-195501227D01*
X117848796Y-195525495D01*
X117850000Y-195549999D01*
X117850000Y-196450001D01*
X117848796Y-196474505D01*
X117845196Y-196498773D01*
X117839235Y-196522572D01*
X117830970Y-196545671D01*
X117820480Y-196567850D01*
X117807868Y-196588893D01*
X117793253Y-196608599D01*
X117776777Y-196626777D01*
X117758599Y-196643253D01*
X117738893Y-196657868D01*
X117717850Y-196670480D01*
X117695671Y-196680970D01*
X117672572Y-196689235D01*
X117648773Y-196695196D01*
X117624505Y-196698796D01*
X117600001Y-196700000D01*
X116949999Y-196700000D01*
X116925495Y-196698796D01*
X116901227Y-196695196D01*
X116877428Y-196689235D01*
X116854329Y-196680970D01*
X116832150Y-196670480D01*
X116811107Y-196657868D01*
X116791401Y-196643253D01*
X116773223Y-196626777D01*
X116756747Y-196608599D01*
X116742132Y-196588893D01*
X116729520Y-196567850D01*
X116719030Y-196545671D01*
X116710765Y-196522572D01*
X116704804Y-196498773D01*
X116701204Y-196474505D01*
X116700000Y-196450001D01*
X116700000Y-195549999D01*
X116701204Y-195525495D01*
X116704804Y-195501227D01*
X116710765Y-195477428D01*
X116719030Y-195454329D01*
X116729520Y-195432150D01*
X116742132Y-195411107D01*
X116756747Y-195391401D01*
X116773223Y-195373223D01*
X116791401Y-195356747D01*
X116811107Y-195342132D01*
X116832150Y-195329520D01*
X116854329Y-195319030D01*
X116877428Y-195310765D01*
X116901227Y-195304804D01*
X116925495Y-195301204D01*
X116949999Y-195300000D01*
X117600001Y-195300000D01*
X117624505Y-195301204D01*
X117624505Y-195301204D01*
G37*
D12*
X117275000Y-196000000D03*
D10*
G36*
X305574505Y-195301204D02*
G01*
X305598773Y-195304804D01*
X305622572Y-195310765D01*
X305645671Y-195319030D01*
X305667850Y-195329520D01*
X305688893Y-195342132D01*
X305708599Y-195356747D01*
X305726777Y-195373223D01*
X305743253Y-195391401D01*
X305757868Y-195411107D01*
X305770480Y-195432150D01*
X305780970Y-195454329D01*
X305789235Y-195477428D01*
X305795196Y-195501227D01*
X305798796Y-195525495D01*
X305800000Y-195549999D01*
X305800000Y-196450001D01*
X305798796Y-196474505D01*
X305795196Y-196498773D01*
X305789235Y-196522572D01*
X305780970Y-196545671D01*
X305770480Y-196567850D01*
X305757868Y-196588893D01*
X305743253Y-196608599D01*
X305726777Y-196626777D01*
X305708599Y-196643253D01*
X305688893Y-196657868D01*
X305667850Y-196670480D01*
X305645671Y-196680970D01*
X305622572Y-196689235D01*
X305598773Y-196695196D01*
X305574505Y-196698796D01*
X305550001Y-196700000D01*
X304899999Y-196700000D01*
X304875495Y-196698796D01*
X304851227Y-196695196D01*
X304827428Y-196689235D01*
X304804329Y-196680970D01*
X304782150Y-196670480D01*
X304761107Y-196657868D01*
X304741401Y-196643253D01*
X304723223Y-196626777D01*
X304706747Y-196608599D01*
X304692132Y-196588893D01*
X304679520Y-196567850D01*
X304669030Y-196545671D01*
X304660765Y-196522572D01*
X304654804Y-196498773D01*
X304651204Y-196474505D01*
X304650000Y-196450001D01*
X304650000Y-195549999D01*
X304651204Y-195525495D01*
X304654804Y-195501227D01*
X304660765Y-195477428D01*
X304669030Y-195454329D01*
X304679520Y-195432150D01*
X304692132Y-195411107D01*
X304706747Y-195391401D01*
X304723223Y-195373223D01*
X304741401Y-195356747D01*
X304761107Y-195342132D01*
X304782150Y-195329520D01*
X304804329Y-195319030D01*
X304827428Y-195310765D01*
X304851227Y-195304804D01*
X304875495Y-195301204D01*
X304899999Y-195300000D01*
X305550001Y-195300000D01*
X305574505Y-195301204D01*
X305574505Y-195301204D01*
G37*
D12*
X305225000Y-196000000D03*
D10*
G36*
X307624505Y-195301204D02*
G01*
X307648773Y-195304804D01*
X307672572Y-195310765D01*
X307695671Y-195319030D01*
X307717850Y-195329520D01*
X307738893Y-195342132D01*
X307758599Y-195356747D01*
X307776777Y-195373223D01*
X307793253Y-195391401D01*
X307807868Y-195411107D01*
X307820480Y-195432150D01*
X307830970Y-195454329D01*
X307839235Y-195477428D01*
X307845196Y-195501227D01*
X307848796Y-195525495D01*
X307850000Y-195549999D01*
X307850000Y-196450001D01*
X307848796Y-196474505D01*
X307845196Y-196498773D01*
X307839235Y-196522572D01*
X307830970Y-196545671D01*
X307820480Y-196567850D01*
X307807868Y-196588893D01*
X307793253Y-196608599D01*
X307776777Y-196626777D01*
X307758599Y-196643253D01*
X307738893Y-196657868D01*
X307717850Y-196670480D01*
X307695671Y-196680970D01*
X307672572Y-196689235D01*
X307648773Y-196695196D01*
X307624505Y-196698796D01*
X307600001Y-196700000D01*
X306949999Y-196700000D01*
X306925495Y-196698796D01*
X306901227Y-196695196D01*
X306877428Y-196689235D01*
X306854329Y-196680970D01*
X306832150Y-196670480D01*
X306811107Y-196657868D01*
X306791401Y-196643253D01*
X306773223Y-196626777D01*
X306756747Y-196608599D01*
X306742132Y-196588893D01*
X306729520Y-196567850D01*
X306719030Y-196545671D01*
X306710765Y-196522572D01*
X306704804Y-196498773D01*
X306701204Y-196474505D01*
X306700000Y-196450001D01*
X306700000Y-195549999D01*
X306701204Y-195525495D01*
X306704804Y-195501227D01*
X306710765Y-195477428D01*
X306719030Y-195454329D01*
X306729520Y-195432150D01*
X306742132Y-195411107D01*
X306756747Y-195391401D01*
X306773223Y-195373223D01*
X306791401Y-195356747D01*
X306811107Y-195342132D01*
X306832150Y-195329520D01*
X306854329Y-195319030D01*
X306877428Y-195310765D01*
X306901227Y-195304804D01*
X306925495Y-195301204D01*
X306949999Y-195300000D01*
X307600001Y-195300000D01*
X307624505Y-195301204D01*
X307624505Y-195301204D01*
G37*
D12*
X307275000Y-196000000D03*
M02*
