M48
; DRILL file {KiCad (5.1.0)-1} date 20/06/11 10:08:46
; FORMAT={-:-/ absolute / inch / decimal}
; #@! TF.CreationDate,2020-06-11T10:08:46-02:30
; #@! TF.GenerationSoftware,Kicad,Pcbnew,(5.1.0)-1
; #@! TF.FileFunction,Plated,1,2,PTH
FMAT,2
INCH
T1C0.0157
T2C0.0197
T3C0.0362
T4C0.0394
T5C0.0402
T6C0.0429
T7C0.0917
T8C0.1339
T9C0.1693
%
G90
G05
T1
X4.7244Y-5.7677
X4.7244Y-5.8858
X4.7244Y-6.1614
X4.7244Y-6.2795
X4.8425Y-5.7677
X4.8425Y-5.8858
X4.8425Y-6.1614
X4.8425Y-6.2795
X4.872Y-4.7343
X4.9409Y-4.7343
X4.9606Y-3.6319
X4.9606Y-3.7106
X4.9606Y-3.8386
X4.9606Y-6.1614
X4.9606Y-6.2795
X5.0394Y-3.6319
X5.0394Y-3.7106
X5.0394Y-3.8386
X5.0984Y-4.065
X5.1181Y-3.6319
X5.1181Y-3.7106
X5.1181Y-3.8386
X5.1476Y-4.7047
X5.1476Y-4.6358
X5.1575Y-4.8524
X5.1575Y-5.0787
X5.1969Y-3.6319
X5.1969Y-3.7106
X5.1969Y-3.8386
X5.2756Y-4.7441
X5.2756Y-4.8228
X5.2854Y-4.2717
X5.2953Y-4.2126
X5.3543Y-4.2126
X5.3543Y-4.7441
X5.3543Y-4.8228
X5.3932Y-4.2918
X5.4232Y-3.9075
X5.4331Y-3.0512
X5.4331Y-6.752
X5.4331Y-7.1457
X5.4724Y-5.8465
X5.4724Y-5.8858
X5.4724Y-5.9252
X5.4724Y-5.9646
X5.4724Y-6.0039
X5.5118Y-5.8465
X5.5118Y-5.8858
X5.5118Y-5.9252
X5.5118Y-5.9646
X5.5118Y-6.0039
X5.5906Y-6.752
X5.6496Y-5.6004
X5.6693Y-4.8228
X5.7283Y-5.6004
X5.748Y-4.8228
X5.748Y-6.752
X5.8465Y-5.5217
X5.9055Y-6.752
X5.9252Y-4.4882
X5.9252Y-5.5217
X5.9646Y-4.4774
X5.9843Y-5.2165
X5.9843Y-7.1457
X6.0236Y-3.0512
X6.0236Y-5.6496
X6.0236Y-5.689
X6.0236Y-5.7283
X6.0236Y-5.7677
X6.0236Y-5.8071
X6.063Y-5.2165
X6.063Y-5.6496
X6.063Y-5.689
X6.063Y-5.7283
X6.063Y-5.7677
X6.063Y-5.8071
X6.063Y-5.9646
X6.063Y-6.752
X6.1417Y-4.1339
X6.1417Y-5.9646
X6.1909Y-4.5276
X6.2205Y-6.752
X6.2402Y-4.5276
X6.2402Y-5.0689
X6.2894Y-4.5276
X6.2894Y-5.0689
X6.2894Y-5.2165
X6.2894Y-5.2953
X6.3287Y-4.8425
X6.3386Y-4.9311
X6.3386Y-4.9803
X6.3386Y-5.0295
X6.3976Y-4.4882
X6.4469Y-4.4882
X6.4562Y-4.9119
X6.4961Y-7.2244
X6.5059Y-4.498
X6.5354Y-4.1142
X6.5551Y-4.8425
X6.5748Y-5.2362
X6.6142Y-3.0512
X6.6142Y-4.1142
X6.6142Y-4.1929
X6.6535Y-7.2244
X6.6929Y-5.4045
X6.7908Y-4.1235
X6.7913Y-5.0
X6.7913Y-5.0394
X6.811Y-6.1614
X6.8209Y-4.8425
X6.8318Y-5.0762
X6.8504Y-4.872
X6.8522Y-4.6367
X6.8602Y-5.0098
X6.8799Y-4.5177
X6.8799Y-4.9016
X6.8898Y-4.124
X6.8898Y-6.0827
X6.8898Y-6.1614
X6.8902Y-5.2904
X6.9094Y-4.9311
X6.948Y-5.2748
X6.9483Y-5.0202
X6.9488Y-4.6457
X6.9685Y-4.813
X7.0177Y-4.7835
X7.0374Y-4.8917
X7.0472Y-3.9567
X7.0472Y-4.1142
X7.0472Y-4.1929
X7.0679Y-6.1614
X7.0965Y-4.7539
X7.1122Y-4.9232
X7.126Y-3.9567
X7.126Y-4.1142
X7.1654Y-5.7283
X7.1654Y-6.1614
X7.2047Y-2.9921
X7.2047Y-7.2638
X7.2343Y-4.9409
X7.3228Y-5.7283
X7.3228Y-6.0827
X7.3228Y-6.1614
X7.4016Y-3.9567
X7.4016Y-4.1142
X7.4016Y-6.1614
X7.4213Y-5.0492
X7.4803Y-5.7283
X7.5098Y-5.3642
X7.5197Y-3.9567
X7.5197Y-4.1142
X7.7165Y-5.3543
X7.7165Y-6.0433
X7.7165Y-6.122
X7.7165Y-6.2008
X7.7165Y-7.3425
X7.7559Y-4.1142
X7.7657Y-2.9921
X7.8346Y-4.1142
X7.8346Y-4.1929
X7.874Y-4.7047
X7.874Y-4.8622
X7.874Y-5.3543
X8.0315Y-4.1043
X8.0315Y-4.7047
X8.0315Y-4.8622
X8.0315Y-5.3543
X8.1363Y-4.106
X8.1496Y-5.8465
X8.1594Y-5.5315
X8.189Y-4.7047
X8.189Y-4.8622
X8.248Y-6.1713
X8.2579Y-5.6102
X8.2579Y-5.689
X8.2677Y-7.1457
X8.2677Y-7.3425
X8.2874Y-2.9921
X8.2972Y-5.3346
X8.3071Y-3.9567
X8.3071Y-4.1142
X8.3071Y-4.1929
X8.3366Y-5.6102
X8.3366Y-5.689
X8.3366Y-6.1713
X8.3465Y-4.7047
X8.3465Y-4.8622
X8.3661Y-5.3346
X8.3858Y-4.1142
X8.435Y-5.3346
X8.5039Y-4.7047
X8.5039Y-4.8622
X8.5039Y-5.0984
X8.5039Y-5.3346
X8.5433Y-6.0827
X8.5433Y-6.1614
X8.5728Y-5.3346
X8.622Y-6.1614
X8.6614Y-3.4449
X8.6614Y-3.6024
X8.6614Y-4.7047
X8.6614Y-4.8622
X8.6614Y-5.0984
X8.7008Y-3.9567
X8.7008Y-4.0748
X8.8189Y-3.4449
X8.8189Y-3.6024
X8.8189Y-3.9567
X8.8189Y-4.0748
X8.8189Y-4.7047
X8.8189Y-4.8622
X8.8189Y-5.0984
X8.878Y-2.9921
X8.8976Y-6.0827
X8.8976Y-6.1614
X8.8976Y-6.2402
X8.8976Y-7.3425
X8.937Y-3.9567
X8.937Y-4.0748
X8.9764Y-3.4449
X8.9764Y-3.6024
X8.9764Y-4.7047
X8.9764Y-4.8622
X8.9764Y-5.0984
X9.0551Y-3.9567
X9.0551Y-4.0748
X9.1339Y-3.4449
X9.1339Y-3.6024
X9.1732Y-6.1614
X9.2126Y-4.5472
X9.2126Y-5.7283
X9.252Y-6.0827
X9.252Y-6.1614
X9.3701Y-4.3898
X9.3701Y-4.5472
X9.3701Y-5.7283
X9.4094Y-4.1142
X9.4291Y-6.1713
X9.4685Y-2.9921
X9.4882Y-4.1142
X9.4882Y-4.1929
X9.4882Y-7.3425
X9.5276Y-4.3898
X9.5276Y-5.7283
X9.5276Y-6.1614
X9.6457Y-4.1142
X9.685Y-6.0827
X9.685Y-6.1614
X9.7416Y-4.11
X9.7638Y-6.1614
X9.9213Y-4.1142
X9.9213Y-4.1929
X10.0Y-4.1142
X10.0591Y-2.9921
X10.0787Y-7.3425
X10.3642Y-4.9311
X10.5217Y-4.7736
X10.5217Y-4.9311
X10.5217Y-5.3346
X10.5217Y-5.5709
X10.5217Y-5.7283
X10.5217Y-5.8858
X10.6693Y-7.3425
X10.7874Y-4.5079
X10.7874Y-4.5866
X10.8618Y-4.7196
X10.8656Y-5.906
X10.8661Y-6.003
X10.8661Y-4.5079
X10.8661Y-4.5866
X10.8661Y-4.8228
X10.8661Y-5.3346
X11.0236Y-5.3346
X11.0236Y-5.4134
X11.2598Y-7.3425
X11.4961Y-3.0906
X11.8898Y-4.5866
X11.8898Y-5.6496
X11.8898Y-6.2402
X11.8898Y-6.8307
X11.9291Y-3.4055
X11.9291Y-3.9961
X11.9488Y-5.0591
T2
X4.7736Y-7.185
X5.2461Y-5.3543
X5.5807Y-5.3543
T3
X4.5177Y-3.5728
X4.5177Y-3.6713
X4.5965Y-3.5728
X4.5965Y-3.6713
T4
X5.9433Y-3.7945
X5.9433Y-3.8945
X5.9433Y-3.9945
X5.9433Y-4.0945
X5.9433Y-4.1945
X6.0433Y-3.7945
X6.0433Y-3.8945
X6.0433Y-3.9945
X6.0433Y-4.0945
X6.0433Y-4.1945
X5.1673Y-6.2402
X5.2673Y-6.2402
X5.3673Y-6.2402
T5
X4.3504Y-7.0669
X4.3504Y-7.185
X4.4685Y-7.0669
X4.4685Y-7.185
X4.3504Y-6.624
X4.3504Y-6.7421
X4.4685Y-6.624
X4.4685Y-6.7421
T6
X8.4622Y-2.8232
X8.5622Y-2.8232
X8.6622Y-2.8232
X8.7622Y-2.8232
X10.2339Y-7.5114
X10.3339Y-7.5114
X10.4339Y-7.5114
X10.5339Y-7.5114
X9.0528Y-7.5114
X9.1528Y-7.5114
X9.2528Y-7.5114
X9.3528Y-7.5114
X5.5094Y-2.8232
X5.6094Y-2.8232
X5.7094Y-2.8232
X5.8094Y-2.8232
X12.1276Y-5.9031
X12.1276Y-6.0031
X12.1276Y-6.1031
X12.1276Y-6.2031
X4.5063Y-4.1807
X4.5063Y-4.2807
X4.5063Y-4.3807
X4.5063Y-4.4807
X7.2811Y-2.8232
X7.3811Y-2.8232
X7.4811Y-2.8232
X7.5811Y-2.8232
X9.6433Y-2.8232
X9.7433Y-2.8232
X9.8433Y-2.8232
X9.9433Y-2.8232
X6.6906Y-7.5114
X6.7906Y-7.5114
X6.8906Y-7.5114
X6.9906Y-7.5114
X12.1276Y-4.722
X12.1276Y-4.822
X12.1276Y-4.922
X12.1276Y-5.022
X4.9189Y-7.5114
X5.0189Y-7.5114
X5.1189Y-7.5114
X5.2189Y-7.5114
X11.415Y-2.8232
X11.515Y-2.8232
X11.615Y-2.8232
X11.715Y-2.8232
X12.1276Y-6.4937
X12.1276Y-6.5937
X12.1276Y-6.6937
X12.1276Y-6.7937
X12.1276Y-7.0843
X12.1276Y-7.1843
X12.1276Y-7.2843
X12.1276Y-7.3843
X7.2811Y-7.5114
X7.3811Y-7.5114
X7.4811Y-7.5114
X7.5811Y-7.5114
X9.0528Y-2.8232
X9.1528Y-2.8232
X9.2528Y-2.8232
X9.3528Y-2.8232
X4.5063Y-5.5965
X4.5063Y-5.6965
X4.5063Y-5.7965
X4.5063Y-5.8965
X4.5063Y-5.9965
X4.5063Y-6.0965
X10.8244Y-2.8232
X10.9244Y-2.8232
X11.0244Y-2.8232
X11.1244Y-2.8232
X12.1276Y-4.1315
X12.1276Y-4.2315
X12.1276Y-4.3315
X12.1276Y-4.4315
X9.6433Y-7.5114
X9.7433Y-7.5114
X9.8433Y-7.5114
X9.9433Y-7.5114
X10.2339Y-2.8232
X10.3339Y-2.8232
X10.4339Y-2.8232
X10.5339Y-2.8232
X8.4622Y-7.5114
X8.5622Y-7.5114
X8.6622Y-7.5114
X8.7622Y-7.5114
X4.9189Y-2.8232
X5.0189Y-2.8232
X5.1189Y-2.8232
X5.2189Y-2.8232
X7.8717Y-7.5114
X7.9717Y-7.5114
X8.0717Y-7.5114
X8.1717Y-7.5114
X6.1Y-2.8232
X6.2Y-2.8232
X6.3Y-2.8232
X6.4Y-2.8232
X6.1Y-7.5114
X6.2Y-7.5114
X6.3Y-7.5114
X6.4Y-7.5114
X4.5063Y-4.7894
X4.5063Y-4.8894
X4.5063Y-4.9894
X4.5063Y-5.0894
X4.5063Y-5.1894
X4.5063Y-5.2894
X6.6906Y-2.8232
X6.7906Y-2.8232
X6.8906Y-2.8232
X6.9906Y-2.8232
X12.1276Y-3.5409
X12.1276Y-3.6409
X12.1276Y-3.7409
X12.1276Y-3.8409
X7.8717Y-2.8232
X7.9717Y-2.8232
X8.0717Y-2.8232
X8.1717Y-2.8232
X5.5094Y-7.5114
X5.6094Y-7.5114
X5.7094Y-7.5114
X5.8094Y-7.5114
X12.1276Y-2.9504
X12.1276Y-3.0504
X12.1276Y-3.1504
X12.1276Y-3.2504
X10.8244Y-7.5114
X10.9244Y-7.5114
X11.0244Y-7.5114
X11.1244Y-7.5114
X12.1276Y-5.3126
X12.1276Y-5.4126
X12.1276Y-5.5126
X12.1276Y-5.6126
X11.415Y-7.5114
X11.515Y-7.5114
X11.615Y-7.5114
X11.715Y-7.5114
T7
X4.411Y-3.385
X4.411Y-3.8591
T8
X8.4122Y-7.8646
X8.8122Y-7.8646
X4.8689Y-2.4701
X5.2689Y-2.4701
X7.8217Y-7.8646
X8.2217Y-7.8646
X6.05Y-2.4701
X6.45Y-2.4701
X6.05Y-7.8646
X6.45Y-7.8646
X4.1531Y-4.7394
X4.1531Y-5.3394
X6.6406Y-2.4701
X7.0406Y-2.4701
X12.4807Y-3.4909
X12.4807Y-3.8909
X7.8217Y-2.4701
X8.2217Y-2.4701
X5.4594Y-7.8646
X5.8594Y-7.8646
X12.4807Y-2.9004
X12.4807Y-3.3004
X10.7744Y-7.8646
X11.1744Y-7.8646
X12.4807Y-5.2626
X12.4807Y-5.6626
X11.365Y-7.8646
X11.765Y-7.8646
X8.4122Y-2.4701
X8.8122Y-2.4701
X10.1839Y-7.8646
X10.5839Y-7.8646
X9.0028Y-7.8646
X9.4028Y-7.8646
X5.4594Y-2.4701
X5.8594Y-2.4701
X12.4807Y-5.8531
X12.4807Y-6.2531
X4.1531Y-4.1307
X4.1531Y-4.5307
X7.2311Y-2.4701
X7.6311Y-2.4701
X9.5933Y-2.4701
X9.9933Y-2.4701
X6.6406Y-7.8646
X7.0406Y-7.8646
X12.4807Y-4.672
X12.4807Y-5.072
X4.8689Y-7.8646
X5.2689Y-7.8646
X11.365Y-2.4701
X11.765Y-2.4701
X12.4807Y-6.4437
X12.4807Y-6.8437
X12.4807Y-7.0343
X12.4807Y-7.4343
X7.2311Y-7.8646
X7.6311Y-7.8646
X9.0028Y-2.4701
X9.4028Y-2.4701
X4.1531Y-5.5465
X4.1531Y-6.1465
X10.7744Y-2.4701
X11.1744Y-2.4701
X12.4807Y-4.0815
X12.4807Y-4.4815
X9.5933Y-7.8646
X9.9933Y-7.8646
X10.1839Y-2.4701
X10.5839Y-2.4701
T9
X4.2618Y-2.5787
X4.2618Y-7.7559
X12.372Y-2.5787
X12.372Y-7.7559
T0
M30
